M48
METRIC,LZ,000.000
;FILE_FORMAT=3:3
;TYPE=PLATED
;Layer: PTH_Through
;EasyEDA v6.5.46, 2025-04-11 15:52:01
;898f7cb4de8248389c9d67f31726504a,899b5eb0d7ee4baeb7bb73a579ea36e5,10
;Gerber Generator version 0.2
;Holesize 1 = 0.305 mm
T01C0.305
;Holesize 2 = 0.310 mm
T02C0.310
;Holesize 3 = 0.889 mm
T03C0.889
;Holesize 4 = 0.901 mm
T04C0.901
;Holesize 5 = 1.301 mm
T05C1.301
%
G05
G90
T01
X009570Y-030672
X021037Y-032891
X040364Y-012341
X013657Y-029695
X013999Y-024786
X035884Y-032982
X038161Y-029011
X034354Y-025282
X033277Y-010627
X017036Y-026492
X025670Y-032017
X016345Y-026098
X019574Y-025866
X022739Y-023167
X026274Y-021400
X029950Y-017724
X029615Y-012177
X038638Y-008833
X037133Y-007354
X042356Y-013499
X048934Y-016124
X028118Y-006578
X031318Y-022030
X032346Y-027345
X014783Y-019130
X014286Y-020675
X007658Y-033050
X041866Y-032823
X042342Y-026284
X007297Y-016056
X004192Y-021022
X003918Y-025812
X023512Y-035145
X005673Y-022730
X018133Y-011042
X036267Y-007049
X027985Y-013783
X023084Y-003645
X018643Y-012571
X029063Y-020135
X003662Y-018068
X016489Y-021952
X020106Y-027239
X030847Y-035433
X009001Y-034789
X030297Y-023769
X024035Y-022439
X027519Y-024370
X027899Y-028668
X041405Y-031178
X021287Y-024748
X038092Y-029934
X018296Y-016261
X056682Y-027260
X055470Y-027612
X016317Y-020009
X054167Y-019567
X012470Y-016280
T02
X022204Y-009525
X025146Y-006223
T03
X040005Y-016891
X040005Y-019431
X037465Y-016891
X037465Y-019431
X034925Y-016891
X034925Y-019431
T04
X025654Y-013208
X025654Y-016637
X025654Y-024130
X025654Y-027559
X002667Y-013208
X002667Y-027559
T05
X010414Y-005715
X005334Y-005715
M30
