G04 Layer: TopLayer*
G04 EasyEDA v6.5.46, 2025-04-11 15:52:01*
G04 898f7cb4de8248389c9d67f31726504a,899b5eb0d7ee4baeb7bb73a579ea36e5,10*
G04 Gerber Generator version 0.2*
G04 Scale: 100 percent, Rotated: No, Reflected: No *
G04 Dimensions in millimeters *
G04 leading zeros omitted , absolute positions ,4 integer and 5 decimal *
%FSLAX45Y45*%
%MOMM*%

%AMMACRO1*21,1,$1,$2,0,0,$3*%
%ADD10C,0.2032*%
%ADD11C,0.2540*%
%ADD12MACRO1,1.35X1.41X90.0000*%
%ADD13MACRO1,1.35X1.41X-90.0000*%
%ADD14R,0.8000X0.9000*%
%ADD15R,1.1000X1.1000*%
%ADD16R,0.4500X0.7000*%
%ADD17R,2.6000X2.2000*%
%ADD18MACRO1,0.54X0.5656X90.0000*%
%ADD19MACRO1,0.54X0.5656X0.0000*%
%ADD20R,0.5400X0.5657*%
%ADD21R,0.2500X0.3500*%
%ADD22R,0.2500X0.4000*%
%ADD23R,0.3500X0.2500*%
%ADD24R,0.4000X0.2500*%
%ADD25R,1.1000X1.7500*%
%ADD26O,0.3800094X1.4500098000000001*%
%ADD27R,0.6800X0.2800*%
%ADD28R,1.1570X0.4900*%
%ADD29R,1.1750X0.4900*%
%ADD30MACRO1,0.864X0.8065X-90.0000*%
%ADD31MACRO1,0.864X0.8065X90.0000*%
%ADD32MACRO1,0.864X0.8065X0.0000*%
%ADD33R,0.8640X0.8065*%
%ADD34R,1.3000X0.3000*%
%ADD35R,1.5000X0.9000*%
%ADD36R,0.9000X1.5000*%
%ADD37R,0.9000X0.9000*%
%ADD38R,1.0000X0.6000*%
%ADD39R,1.1000X0.6000*%
%ADD40R,0.8500X0.3500*%
%ADD41O,2.0379944X0.5739892*%
%ADD42MACRO1,2X2X0.0000*%
%ADD43C,1.5748*%
%ADD44R,1.5748X1.5748*%
%ADD45C,2.2000*%
%ADD46C,0.6096*%
%ADD47C,0.6200*%
%ADD48C,0.0112*%

%LPD*%
G36*
X5955995Y-3191713D02*
G01*
X5917895Y-3191764D01*
X5910122Y-3192170D01*
X5904636Y-3192729D01*
X5901182Y-3193389D01*
X5898540Y-3194456D01*
X5897981Y-3195472D01*
X5897524Y-3207613D01*
X5896914Y-3280460D01*
X5897219Y-3470351D01*
X5898083Y-3689858D01*
X5937148Y-3691229D01*
X5955995Y-3691686D01*
G37*
G36*
X5980938Y-3194659D02*
G01*
X5980938Y-3466795D01*
X6062014Y-3466795D01*
X6062014Y-3599840D01*
X6040170Y-3599840D01*
X6040170Y-3487521D01*
X5980887Y-3487521D01*
X5981141Y-3663899D01*
X5981700Y-3675024D01*
X5982258Y-3681476D01*
X5983071Y-3685184D01*
X5983732Y-3686759D01*
X5985103Y-3687572D01*
X6019139Y-3679291D01*
X6030569Y-3675634D01*
X6042660Y-3671265D01*
X6060592Y-3663746D01*
X6078118Y-3655263D01*
X6086957Y-3650538D01*
X6095441Y-3645712D01*
X6108954Y-3637279D01*
X6115964Y-3632250D01*
X6121654Y-3627729D01*
X6130899Y-3619296D01*
X6130899Y-3416401D01*
X6040170Y-3416401D01*
X6040170Y-3280359D01*
X6062014Y-3280359D01*
X6062167Y-3392830D01*
X6130899Y-3392932D01*
X6130899Y-3263849D01*
X6121958Y-3255721D01*
X6114643Y-3249930D01*
X6106617Y-3244189D01*
X6098032Y-3238703D01*
X6081115Y-3229152D01*
X6061913Y-3219958D01*
X6051499Y-3215589D01*
X6031738Y-3208172D01*
X6018733Y-3204006D01*
X6005220Y-3200146D01*
X5991961Y-3196945D01*
G37*
G36*
X5867552Y-3197606D02*
G01*
X5851906Y-3201619D01*
X5815482Y-3212592D01*
X5815228Y-3599738D01*
X5793384Y-3599738D01*
X5793282Y-3223818D01*
X5771083Y-3236214D01*
X5758586Y-3244189D01*
X5750509Y-3249777D01*
X5730900Y-3264153D01*
X5730900Y-3619042D01*
X5756503Y-3637534D01*
X5765850Y-3643731D01*
X5773166Y-3648201D01*
X5790793Y-3657955D01*
X5806135Y-3665220D01*
X5821629Y-3671468D01*
X5835192Y-3676142D01*
X5847994Y-3679850D01*
X5864098Y-3683965D01*
X5871260Y-3685590D01*
X5871565Y-3685336D01*
X5872022Y-3671315D01*
X5872530Y-3564890D01*
X5871768Y-3373170D01*
X5871006Y-3265424D01*
X5870498Y-3236772D01*
X5869940Y-3219246D01*
X5869178Y-3205784D01*
X5868111Y-3198266D01*
G37*
D10*
X4203700Y-3338321D02*
G01*
X4203700Y-3476752D01*
X4212843Y-3504437D01*
X4231386Y-3522979D01*
X4259072Y-3532123D01*
X4277613Y-3532123D01*
X4305300Y-3522979D01*
X4323841Y-3504437D01*
X4332986Y-3476752D01*
X4332986Y-3338321D01*
X4504690Y-3430523D02*
G01*
X4486402Y-3412236D01*
X4467859Y-3402837D01*
X4440174Y-3402837D01*
X4421631Y-3412236D01*
X4403090Y-3430523D01*
X4393945Y-3458210D01*
X4393945Y-3476752D01*
X4403090Y-3504437D01*
X4421631Y-3522979D01*
X4440174Y-3532123D01*
X4467859Y-3532123D01*
X4486402Y-3522979D01*
X4504690Y-3504437D01*
X4565650Y-3402837D02*
G01*
X4565650Y-3495294D01*
X4575047Y-3522979D01*
X4593590Y-3532123D01*
X4621275Y-3532123D01*
X4639563Y-3522979D01*
X4667250Y-3495294D01*
X4667250Y-3402837D02*
G01*
X4667250Y-3532123D01*
X4728209Y-3402837D02*
G01*
X4728209Y-3532123D01*
X4728209Y-3458210D02*
G01*
X4737608Y-3430523D01*
X4756150Y-3412236D01*
X4774438Y-3402837D01*
X4802124Y-3402837D01*
X4863084Y-3402837D02*
G01*
X4863084Y-3532123D01*
X4863084Y-3458210D02*
G01*
X4872481Y-3430523D01*
X4890770Y-3412236D01*
X4909311Y-3402837D01*
X4936997Y-3402837D01*
X4997958Y-3458210D02*
G01*
X5108956Y-3458210D01*
X5108956Y-3439921D01*
X5099558Y-3421379D01*
X5090413Y-3412236D01*
X5071872Y-3402837D01*
X5044186Y-3402837D01*
X5025643Y-3412236D01*
X5007356Y-3430523D01*
X4997958Y-3458210D01*
X4997958Y-3476752D01*
X5007356Y-3504437D01*
X5025643Y-3522979D01*
X5044186Y-3532123D01*
X5071872Y-3532123D01*
X5090413Y-3522979D01*
X5108956Y-3504437D01*
X5169915Y-3402837D02*
G01*
X5169915Y-3532123D01*
X5169915Y-3439921D02*
G01*
X5197602Y-3412236D01*
X5215890Y-3402837D01*
X5243829Y-3402837D01*
X5262118Y-3412236D01*
X5271515Y-3439921D01*
X5271515Y-3532123D01*
X5360161Y-3338321D02*
G01*
X5360161Y-3495294D01*
X5369306Y-3522979D01*
X5387847Y-3532123D01*
X5406390Y-3532123D01*
X5332475Y-3402837D02*
G01*
X5396991Y-3402837D01*
D11*
X5416727Y-1956714D02*
G01*
X4999050Y-2374392D01*
X4357395Y-2374392D01*
X1102410Y-1663700D02*
G01*
X1211300Y-1663700D01*
X1246962Y-1628038D01*
X1631899Y-1890725D02*
G01*
X1631695Y-1890928D01*
X1631695Y-2000935D01*
X5549900Y-2883407D02*
G01*
X5549900Y-2764053D01*
X5547004Y-2761157D01*
X5676900Y-2780436D02*
G01*
X5668187Y-2771724D01*
X5668187Y-2725953D01*
X1829587Y-1626057D02*
G01*
X1829587Y-1735988D01*
X1724863Y-1840712D01*
X1631899Y-1840712D02*
G01*
X1724863Y-1840712D01*
X5676900Y-2883407D02*
G01*
X5676900Y-2780436D01*
X2128697Y-2474823D02*
G01*
X2008809Y-2354935D01*
X2008809Y-1848535D01*
X2016633Y-1840712D01*
X2101900Y-1840712D01*
X5930900Y-2880410D02*
G01*
X5930900Y-2983356D01*
X5930900Y-2983356D02*
G01*
X5920892Y-2993364D01*
X3809212Y-2993364D01*
X2403475Y-2243937D02*
G01*
X2194864Y-2035327D01*
X2194864Y-1890699D01*
X2101900Y-1890699D02*
G01*
X2194864Y-1890699D01*
X2751912Y-2437003D02*
G01*
X2789910Y-2475001D01*
X2789910Y-2866821D01*
X2789936Y-2866821D01*
X5803900Y-2780436D02*
G01*
X5806998Y-2777337D01*
X5996609Y-2777337D01*
X6004001Y-2784729D01*
X6004001Y-2971800D01*
X5858027Y-3117773D01*
X4140479Y-3117773D01*
X5803900Y-2883407D02*
G01*
X5803900Y-2780436D01*
X990600Y-3478936D02*
G01*
X919429Y-3478936D01*
X919429Y-3478936D02*
G01*
X900125Y-3478936D01*
X3285007Y-1347698D02*
G01*
X3214547Y-1347698D01*
X2996336Y-3543300D02*
G01*
X3084677Y-3543300D01*
X3029686Y-2376855D02*
G01*
X3021177Y-2368346D01*
X3021177Y-1886686D01*
X3214547Y-1693316D01*
X3214547Y-1347698D01*
X1916836Y-3098800D02*
G01*
X2302992Y-3098800D01*
X2485136Y-2916656D01*
X2654757Y-2916656D01*
X2694813Y-2876600D01*
X2694813Y-2636520D01*
X2686100Y-2627807D01*
X2342083Y-2627807D01*
X2245944Y-2723946D01*
X2010638Y-2723946D01*
X1629892Y-2259101D02*
G01*
X1629892Y-2214219D01*
X1648891Y-2195220D01*
X2010638Y-2723946D02*
G01*
X2010638Y-2814396D01*
X1856409Y-2968625D01*
X1692681Y-2968625D01*
X1270863Y-3390442D01*
X1270863Y-3492500D01*
X4357395Y-1358392D02*
G01*
X4460366Y-1358392D01*
X4004411Y-596900D02*
G01*
X4004411Y-631037D01*
X4307230Y-933856D01*
X4360062Y-933856D01*
X4473117Y-1046911D01*
X4473117Y-1345641D01*
X4460366Y-1358392D01*
X3936136Y-596900D02*
G01*
X4004411Y-596900D01*
X2892602Y-2184400D02*
G01*
X2975559Y-2184400D01*
X2975559Y-2184400D02*
G01*
X2975686Y-2184527D01*
X2975686Y-2348052D01*
X2958591Y-2365146D01*
X2958591Y-2617012D01*
X413207Y-1806752D02*
G01*
X413207Y-1639570D01*
X516077Y-1536700D01*
X548589Y-1536700D01*
X548589Y-1917700D02*
G01*
X509168Y-1917700D01*
X413207Y-1821738D01*
X413207Y-1806752D01*
X2906268Y-2013483D02*
G01*
X2968294Y-2013483D01*
X2975686Y-2020874D01*
X2975686Y-2184272D01*
X2975559Y-2184400D01*
X413207Y-1806752D02*
G01*
X366242Y-1806752D01*
X2203602Y-345109D02*
G01*
X2222931Y-364439D01*
X2308402Y-364439D01*
X2308402Y-364464D01*
X1810512Y-1375689D02*
G01*
X1810512Y-1310944D01*
X1864309Y-1257147D01*
X3064992Y-1347698D02*
G01*
X2994533Y-1347698D01*
X3626713Y-704926D02*
G01*
X3296411Y-374624D01*
X3296411Y-288010D01*
X2994533Y-1347698D02*
G01*
X2963951Y-1378280D01*
X2798470Y-1378280D01*
X1810512Y-935710D02*
G01*
X1810512Y-1101369D01*
X1813305Y-1104163D01*
X567334Y-2272969D02*
G01*
X461797Y-2378506D01*
X461797Y-2642412D01*
X2370988Y-3543300D02*
G01*
X2370988Y-3534333D01*
X2351176Y-3514521D01*
X401777Y-2642412D02*
G01*
X401777Y-2591180D01*
X391795Y-2581198D01*
X2439263Y-3543300D02*
G01*
X2370988Y-3543300D01*
X401777Y-2742412D02*
G01*
X401777Y-2876600D01*
X394385Y-2883992D01*
X145999Y-2883992D01*
X138607Y-2876600D01*
X138607Y-2382824D01*
X419227Y-2102205D01*
X729691Y-1605559D02*
G01*
X606729Y-1605559D01*
X548589Y-1663700D01*
X521512Y-3449802D02*
G01*
X481050Y-3449802D01*
X4357395Y-2628392D02*
G01*
X4254423Y-2628392D01*
X4254423Y-2628392D02*
G01*
X4234154Y-2628392D01*
X481050Y-3449802D02*
G01*
X480745Y-3450107D01*
X480745Y-3554577D01*
X679577Y-3753408D01*
X3715537Y-3753408D01*
X4186631Y-3282314D01*
X521512Y-3509822D02*
G01*
X521512Y-3537686D01*
X695070Y-3711244D01*
X3656152Y-3711244D01*
X3758641Y-3608755D01*
X3758641Y-3028416D01*
X3488867Y-2758643D01*
X3341573Y-2758643D01*
X3249955Y-2667025D01*
X3086608Y-2667025D01*
X661974Y-3509822D02*
G01*
X765784Y-3406012D01*
X765784Y-3305022D01*
X621512Y-3509822D02*
G01*
X661974Y-3509822D01*
X3234613Y-2734513D02*
G01*
X3166084Y-2734513D01*
X3148584Y-2717012D01*
X3086608Y-2717012D02*
G01*
X3148584Y-2717012D01*
X1428572Y-1953895D02*
G01*
X1428572Y-2067458D01*
X1102410Y-1790700D02*
G01*
X1265377Y-1790700D01*
X1428572Y-1953895D01*
X1428572Y-1953895D02*
G01*
X1437335Y-1953895D01*
X1478254Y-1912975D01*
X3166389Y-288010D02*
G01*
X3001365Y-453034D01*
X3001365Y-490118D01*
X2946400Y-490118D02*
G01*
X3001365Y-490118D01*
X3166389Y-727989D02*
G01*
X3015081Y-576681D01*
X2946400Y-576681D01*
X1680489Y-935710D02*
G01*
X1666773Y-935710D01*
X1401165Y-1201318D01*
X1346200Y-1201318D02*
G01*
X1401165Y-1201318D01*
X1680489Y-1375689D02*
G01*
X1592681Y-1287881D01*
X1346200Y-1287881D01*
X2063597Y-735558D02*
G01*
X2077618Y-749579D01*
X2077618Y-952500D01*
X2063597Y-620090D02*
G01*
X2063597Y-735558D01*
X3296411Y-727989D02*
G01*
X3296411Y-784377D01*
X3128289Y-952500D01*
X2220442Y-952500D01*
X2164181Y-952500D02*
G01*
X2220442Y-952500D01*
X3152597Y-2279395D02*
G01*
X3131845Y-2258644D01*
X3131845Y-2202967D01*
X2811754Y-657834D02*
G01*
X2811754Y-379856D01*
X2713710Y-281812D01*
X2063597Y-345109D02*
G01*
X1919147Y-345109D01*
X1872462Y-391795D01*
X1793494Y-391795D02*
G01*
X1872462Y-391795D01*
X1793494Y-391795D02*
G01*
X1714500Y-391795D01*
X1714500Y-391795D02*
G01*
X1664030Y-391795D01*
X1616989Y-344754D01*
X1616989Y-281812D02*
G01*
X1616989Y-344754D01*
X1616989Y-644753D02*
G01*
X1540179Y-721563D01*
X940917Y-721563D01*
X652348Y-432993D01*
X467766Y-432993D01*
X124460Y-776300D01*
X124460Y-1664309D01*
X504850Y-2044700D01*
X548589Y-2044700D01*
X1616989Y-581812D02*
G01*
X1616989Y-644753D01*
X2518689Y-218820D02*
G01*
X2512847Y-212979D01*
X1399920Y-212979D01*
X1041400Y-571500D01*
X2518689Y-281812D02*
G01*
X2518689Y-218820D01*
X1812010Y-581812D02*
G01*
X1909724Y-484098D01*
X2316403Y-484098D01*
X2518689Y-281812D01*
X3492500Y-1943100D02*
G01*
X3599205Y-1943100D01*
X6107404Y-1612392D02*
G01*
X4893360Y-1612392D01*
X3599205Y-1943100D02*
G01*
X3599205Y-1916429D01*
X3699535Y-1816100D01*
X3778021Y-1816100D01*
X3887927Y-1706194D01*
X3887927Y-1650593D01*
X4188612Y-1349908D01*
X4235627Y-1349908D01*
X3717188Y-596900D02*
G01*
X3717188Y-731443D01*
X3713276Y-735355D01*
X3785463Y-596900D02*
G01*
X3717188Y-596900D01*
X6107404Y-1485392D02*
G01*
X5177688Y-1485392D01*
X4217898Y-525602D01*
X3875100Y-525602D01*
X3863847Y-536854D01*
X3863847Y-883285D01*
X6107404Y-2628392D02*
G01*
X6004433Y-2628392D01*
X4000500Y-1943100D02*
G01*
X4000500Y-2583357D01*
X4245635Y-2828493D01*
X4453254Y-2828493D01*
X4460646Y-2821101D01*
X4460646Y-2796946D01*
X4629200Y-2628392D01*
X6004433Y-2628392D01*
X2171700Y-2339212D02*
G01*
X2254656Y-2339212D01*
X2254656Y-2339212D02*
G01*
X2254656Y-2336012D01*
X2273934Y-2316734D01*
X2994990Y-1772386D02*
G01*
X2627401Y-2139975D01*
X3064992Y-1217701D02*
G01*
X2961513Y-1217701D01*
X1849907Y-2389098D02*
G01*
X1920367Y-2389098D01*
X1889912Y-2768600D02*
G01*
X1889912Y-2685643D01*
X1920367Y-2389098D02*
G01*
X1920367Y-2540787D01*
X1889912Y-2571242D01*
X1889912Y-2685643D01*
X1589912Y-2768600D02*
G01*
X1672869Y-2768600D01*
X621512Y-3449802D02*
G01*
X621512Y-3401821D01*
X2921863Y-1689100D02*
G01*
X2921863Y-1760270D01*
X2171700Y-2639212D02*
G01*
X2254656Y-2639212D01*
X1634515Y-2609824D02*
G01*
X1589912Y-2654427D01*
X1589912Y-2768600D01*
X2254656Y-2586558D02*
G01*
X1957400Y-2586558D01*
X2254656Y-2586558D02*
G01*
X2254656Y-2639212D01*
X1672869Y-2768600D02*
G01*
X1672869Y-2844292D01*
X1649095Y-2868066D01*
X1363345Y-2868066D01*
X1244472Y-2986938D01*
X1244472Y-3166237D01*
X1164234Y-3246475D01*
X741527Y-3246475D01*
X621512Y-3366490D01*
X621512Y-3401821D01*
X2254656Y-2586558D02*
G01*
X2254656Y-2475585D01*
X2462022Y-2268220D01*
X2462022Y-2220112D01*
X2921863Y-1760270D01*
X2589936Y-3543300D02*
G01*
X2589936Y-3385870D01*
X2602636Y-3373170D01*
X2602636Y-3337585D02*
G01*
X2602636Y-3373170D01*
X2602636Y-3337585D02*
G01*
X2602636Y-3302000D01*
X2457297Y-3073400D02*
G01*
X2525268Y-3073400D01*
X2602636Y-3302000D02*
G01*
X2534335Y-3302000D01*
X2525268Y-3073400D02*
G01*
X2525268Y-3160674D01*
X2508478Y-3177463D01*
X2508478Y-3225977D01*
X2534335Y-3251835D01*
X2534335Y-3302000D01*
X786333Y-2559304D02*
G01*
X872159Y-2559304D01*
X1017066Y-2749295D02*
G01*
X930351Y-2749295D01*
X930351Y-2749295D02*
G01*
X930351Y-2617495D01*
X930351Y-2617495D02*
G01*
X872159Y-2559304D01*
X2597302Y-3146374D02*
G01*
X2567025Y-3176651D01*
X2567025Y-3201720D01*
X2597302Y-3073400D02*
G01*
X2597302Y-3146374D01*
X1703628Y-2649245D02*
G01*
X1693062Y-2638679D01*
X1693062Y-2585542D01*
X1614703Y-2507157D01*
X2101900Y-1740712D02*
G01*
X1995957Y-1740712D01*
X1735226Y-2001443D01*
X1735226Y-2386634D01*
X1614703Y-2507157D01*
X1614703Y-2507157D02*
G01*
X1504365Y-2617495D01*
X930351Y-2617495D01*
X3327679Y-1062710D02*
G01*
X3361410Y-1028979D01*
X3361410Y-727989D01*
X1875510Y-1375689D02*
G01*
X2188489Y-1062710D01*
X3327679Y-1062710D01*
X3435375Y-2528239D02*
G01*
X3430600Y-2533014D01*
X3430600Y-2587294D01*
X3430600Y-2587294D02*
G01*
X3430600Y-2641600D01*
X3430600Y-2587294D02*
G01*
X3430600Y-2635300D01*
X3696360Y-2901061D01*
X3816121Y-2901061D01*
X3584422Y-3587495D02*
G01*
X3501440Y-3587495D01*
X3501440Y-3587495D02*
G01*
X3501313Y-3587369D01*
X3501313Y-3354933D01*
X3558031Y-3298215D01*
X3588410Y-3298215D01*
X3584422Y-3397504D02*
G01*
X3667379Y-3397504D01*
X3427399Y-3035300D02*
G01*
X3427399Y-2939821D01*
X3427399Y-2939821D02*
G01*
X3527958Y-2939821D01*
X3667379Y-3079242D01*
X3667379Y-3397504D01*
X3324377Y-3587495D02*
G01*
X3407359Y-3587495D01*
X3227400Y-3035300D02*
G01*
X3227400Y-3130753D01*
X3227400Y-3130753D02*
G01*
X3407486Y-3310839D01*
X3407486Y-3587369D01*
X3407359Y-3587495D01*
X3152597Y-2089404D02*
G01*
X3069640Y-2089404D01*
X3417900Y-2273300D02*
G01*
X3319424Y-2273300D01*
X3285007Y-1217701D02*
G01*
X3576345Y-1217701D01*
X3609340Y-1250695D01*
X3687292Y-1250695D02*
G01*
X3648329Y-1250695D01*
X3648329Y-1250695D02*
G01*
X3609340Y-1250695D01*
X1421536Y-3492500D02*
G01*
X1353235Y-3492500D01*
X1344599Y-3086100D02*
G01*
X1344599Y-3181553D01*
X4192168Y-1231392D02*
G01*
X4357395Y-1231392D01*
X1017066Y-2559304D02*
G01*
X1060424Y-2559304D01*
X3584422Y-3492500D02*
G01*
X3667379Y-3492500D01*
X1344599Y-3181553D02*
G01*
X1197889Y-3328263D01*
X1061770Y-3328263D01*
X1244727Y-1409700D02*
G01*
X1244727Y-1207338D01*
X1629384Y-822680D01*
X1689023Y-822680D01*
X1745513Y-879170D01*
X1745513Y-935710D01*
X1244727Y-1409700D02*
G01*
X1102410Y-1409700D01*
X2989579Y-2717012D02*
G01*
X3020568Y-2717012D01*
X1026185Y-3328263D02*
G01*
X1061770Y-3328263D01*
X1026185Y-3328263D02*
G01*
X990600Y-3328263D01*
X1344599Y-3086100D02*
G01*
X1344599Y-2990621D01*
X1365732Y-2969488D02*
G01*
X1344599Y-2990621D01*
X1060424Y-2559304D02*
G01*
X1319225Y-2559304D01*
X1399920Y-2478608D01*
X2989579Y-2717012D02*
G01*
X2958591Y-2717012D01*
X3686987Y-1327302D02*
G01*
X3069640Y-1944649D01*
X3069640Y-2089404D01*
X3648329Y-1250695D02*
G01*
X3686987Y-1289354D01*
X3686987Y-1327302D01*
X3686987Y-1327302D02*
G01*
X4096258Y-1327302D01*
X4192168Y-1231392D01*
X3088233Y-2352573D02*
G01*
X3240150Y-2352573D01*
X3319424Y-2273300D01*
X3020568Y-2717012D02*
G01*
X3020695Y-2716885D01*
X3020695Y-2468676D01*
X3088233Y-2401138D01*
X3088233Y-2352573D01*
X3088233Y-2352573D02*
G01*
X3069513Y-2333853D01*
X3069513Y-2089530D01*
X3069640Y-2089404D01*
X1061770Y-3328263D02*
G01*
X1079169Y-3345662D01*
X1079169Y-3555364D01*
X1079169Y-3555364D02*
G01*
X1079093Y-3555441D01*
X597433Y-3555441D01*
X571525Y-3529533D01*
X571525Y-3509822D01*
X3667379Y-3492500D02*
G01*
X3708374Y-3451504D01*
X3708374Y-3041675D01*
X3510076Y-2843377D01*
X3115945Y-2843377D01*
X2989579Y-2717012D01*
X1079169Y-3555364D02*
G01*
X1087602Y-3563797D01*
X1353235Y-3563797D01*
X1353235Y-3492500D02*
G01*
X1353235Y-3563797D01*
X1353235Y-3563797D02*
G01*
X1451330Y-3661892D01*
X3640581Y-3661892D01*
X3671849Y-3630625D01*
X3671849Y-3496970D01*
X3667379Y-3492500D01*
X3231413Y-288010D02*
G01*
X3231413Y-392429D01*
X3824427Y-985443D01*
X3968191Y-985443D01*
X4192168Y-1209420D01*
X4192168Y-1231392D01*
X1399920Y-2478608D02*
G01*
X1447292Y-2478608D01*
X1536801Y-2389098D01*
X1536801Y-2389098D02*
G01*
X1629892Y-2389098D01*
X1536801Y-2389098D02*
G01*
X1536801Y-1790700D01*
X1631899Y-1790700D02*
G01*
X1536801Y-1790700D01*
X1536801Y-1790700D02*
G01*
X1244727Y-1498625D01*
X1244727Y-1409700D01*
X3936187Y-1060704D02*
G01*
X3985285Y-1060704D01*
X3907307Y-1250695D02*
G01*
X3985259Y-1250695D01*
X3936187Y-1060704D02*
G01*
X3907307Y-1060704D01*
X1966899Y-3441700D02*
G01*
X1966899Y-3537153D01*
X2437434Y-2755900D02*
G01*
X2183917Y-3009417D01*
X1731721Y-3009417D01*
X1653717Y-3087420D01*
X1653717Y-3513353D01*
X1677644Y-3537280D01*
X1966772Y-3537280D01*
X1966899Y-3537153D01*
X2565400Y-2755900D02*
G01*
X2437434Y-2755900D01*
X3985640Y-1234135D02*
G01*
X4036364Y-1234135D01*
X3985259Y-1250695D02*
G01*
X3985640Y-1250314D01*
X3985640Y-1234135D01*
X3985640Y-1234135D02*
G01*
X3985640Y-1061059D01*
X3985285Y-1060704D01*
X1102410Y-1536700D02*
G01*
X1045616Y-1479905D01*
X618794Y-1479905D01*
X548589Y-1409700D01*
X2101900Y-1790725D02*
G01*
X2194864Y-1790725D01*
X2143328Y-1690700D02*
G01*
X2184755Y-1690700D01*
X2143328Y-1690700D02*
G01*
X2101900Y-1690700D01*
X3072536Y-1617929D02*
G01*
X3139389Y-1551076D01*
X3139389Y-1286611D01*
X3135477Y-1282700D01*
X3072536Y-1689100D02*
G01*
X3072536Y-1617929D01*
X3617899Y-2273300D02*
G01*
X3617899Y-2368753D01*
X2565400Y-1320800D02*
G01*
X2437434Y-1320800D01*
X2203602Y-620090D02*
G01*
X2203602Y-735558D01*
X786333Y-2654300D02*
G01*
X700506Y-2654300D01*
X535000Y-3086100D02*
G01*
X535000Y-3181553D01*
X3617899Y-2273300D02*
G01*
X3617899Y-2177821D01*
X3630599Y-2641600D02*
G01*
X3630599Y-2546121D01*
X571525Y-3449802D02*
G01*
X571525Y-3218078D01*
X571525Y-3218078D02*
G01*
X535000Y-3181553D01*
X1766163Y-3098800D02*
G01*
X1766163Y-3169970D01*
X1144600Y-3123692D02*
G01*
X1144600Y-3181553D01*
X1144600Y-3123692D02*
G01*
X1144600Y-3086100D01*
X1745513Y-1375689D02*
G01*
X1745513Y-1263370D01*
X1875510Y-1133373D01*
X1875510Y-935710D01*
X548589Y-1790700D02*
G01*
X692530Y-1790700D01*
X600075Y-2171700D02*
G01*
X548589Y-2171700D01*
X692530Y-1790700D02*
G01*
X692530Y-2079244D01*
X600075Y-2171700D01*
X3100247Y-1282700D02*
G01*
X3135477Y-1282700D01*
X3100247Y-1282700D02*
G01*
X3064992Y-1282700D01*
X2565400Y-1320800D02*
G01*
X2693365Y-1320800D01*
X1849907Y-2324100D02*
G01*
X1779447Y-2324100D01*
X2101900Y-1790725D02*
G01*
X2008936Y-1790725D01*
X6107404Y-1104392D02*
G01*
X6004433Y-1104392D01*
X3086608Y-2617012D02*
G01*
X3117595Y-2617012D01*
X3072536Y-1689100D02*
G01*
X3072536Y-1760270D01*
X724280Y-762380D02*
G01*
X548589Y-938072D01*
X548589Y-1409700D01*
X533400Y-571500D02*
G01*
X724280Y-762380D01*
X724280Y-762380D02*
G01*
X1767204Y-762380D01*
X1875510Y-870686D01*
X1875510Y-935710D01*
X2194991Y-1690700D02*
G01*
X2194991Y-1790598D01*
X2194864Y-1790725D01*
X2184755Y-1690700D02*
G01*
X2194991Y-1690700D01*
X2845663Y-3543300D02*
G01*
X2879826Y-3543300D01*
X2879826Y-3543300D02*
G01*
X2913964Y-3543300D01*
X3617899Y-2177821D02*
G01*
X3665626Y-2177821D01*
X3860139Y-1983308D01*
X3860139Y-1829460D01*
X4000500Y-1689100D01*
X1766163Y-3169970D02*
G01*
X1766900Y-3170707D01*
X1766900Y-3340404D01*
X1766900Y-3340404D02*
G01*
X1766900Y-3441700D01*
X2194991Y-1690700D02*
G01*
X2437434Y-1448257D01*
X2437434Y-1320800D01*
X6004433Y-1104392D02*
G01*
X5188051Y-288010D01*
X3361410Y-288010D01*
X3064992Y-1282700D02*
G01*
X2994533Y-1282700D01*
X3617899Y-2368753D02*
G01*
X3546678Y-2439974D01*
X3630599Y-2546121D02*
G01*
X3563315Y-2478836D01*
X3563315Y-2456637D01*
X3546678Y-2439974D01*
X2693365Y-1320800D02*
G01*
X2731465Y-1282700D01*
X2994533Y-1282700D01*
X1745513Y-1375689D02*
G01*
X1745513Y-1436217D01*
X1999995Y-1690700D01*
X2101900Y-1690700D01*
X2008936Y-1790725D02*
G01*
X1777949Y-2021712D01*
X1777949Y-2322601D01*
X1779447Y-2324100D01*
X2892602Y-2279395D02*
G01*
X2851124Y-2279395D01*
X2851124Y-2279395D02*
G01*
X2809646Y-2279395D01*
X3324377Y-3397504D02*
G01*
X3018840Y-3397504D01*
X3018840Y-3397504D02*
G01*
X2913964Y-3502380D01*
X2913964Y-3543300D01*
X2851124Y-2279395D02*
G01*
X2851124Y-3229787D01*
X3018840Y-3397504D01*
X3411270Y-1155700D02*
G01*
X3411270Y-657758D01*
X3373043Y-619531D01*
X3283458Y-619531D01*
X3231413Y-671576D01*
X3231413Y-727989D01*
X3907307Y-1155700D02*
G01*
X3411270Y-1155700D01*
X3411270Y-1155700D02*
G01*
X3230346Y-1155700D01*
X3135477Y-1250569D01*
X3135477Y-1282700D01*
X3546678Y-2439974D02*
G01*
X3546652Y-2439974D01*
X3462934Y-2439974D01*
X3461765Y-2441143D01*
X3350742Y-2441143D01*
X3332632Y-2459253D01*
X3275355Y-2459253D01*
X3117595Y-2617012D01*
X1144600Y-3181553D02*
G01*
X1120444Y-3205708D01*
X583895Y-3205708D01*
X571525Y-3218078D01*
X692530Y-1790700D02*
G01*
X946530Y-1536700D01*
X1102410Y-1536700D01*
X2203602Y-735558D02*
G01*
X2855213Y-735558D01*
X2889478Y-701294D01*
X3231413Y-727989D02*
G01*
X3231413Y-783615D01*
X3184118Y-830910D01*
X3019094Y-830910D01*
X2889478Y-701294D01*
X2889478Y-701294D02*
G01*
X2889478Y-428244D01*
X3135096Y-182626D01*
X3313531Y-182626D01*
X3361410Y-230504D01*
X3361410Y-288010D01*
X535000Y-3086100D02*
G01*
X535000Y-2990621D01*
X535000Y-2692425D02*
G01*
X535000Y-2990621D01*
X461797Y-2692425D02*
G01*
X535000Y-2692425D01*
X535000Y-2692425D02*
G01*
X662381Y-2692425D01*
X700506Y-2654300D01*
X700506Y-2654300D02*
G01*
X625881Y-2579674D01*
X625881Y-2197506D01*
X600075Y-2171700D01*
X3072536Y-1760270D02*
G01*
X3072536Y-1777669D01*
X2895269Y-1954936D01*
X2882011Y-1954936D01*
X2805760Y-2031187D01*
X2805760Y-2275509D01*
X2809646Y-2279395D01*
X2879826Y-3543300D02*
G01*
X2808554Y-3614572D01*
X2537968Y-3614572D01*
X2514117Y-3590721D01*
X2514117Y-3479393D01*
X2490698Y-3455974D01*
X2187778Y-3455974D01*
X2072208Y-3340404D01*
X1766900Y-3340404D01*
X734999Y-3086100D02*
G01*
X833475Y-3086100D01*
X786333Y-2749295D02*
G01*
X872159Y-2749295D01*
X2383688Y-3302000D02*
G01*
X2370810Y-3289122D01*
X2103729Y-3289122D01*
X957046Y-3067227D02*
G01*
X891971Y-3067227D01*
X872159Y-3047415D01*
X833475Y-3086100D02*
G01*
X872159Y-3047415D01*
X872159Y-3047415D02*
G01*
X872159Y-2749295D01*
X2451963Y-3302000D02*
G01*
X2383688Y-3302000D01*
D12*
G01*
X735002Y-3086100D03*
G01*
X534997Y-3086100D03*
G01*
X1966902Y-3441700D03*
G01*
X1766897Y-3441700D03*
G01*
X1344602Y-3086100D03*
G01*
X1144597Y-3086100D03*
D13*
G01*
X3417897Y-2273300D03*
G01*
X3617902Y-2273300D03*
G01*
X3227397Y-3035300D03*
G01*
X3427402Y-3035300D03*
G01*
X3430597Y-2641600D03*
G01*
X3630602Y-2641600D03*
D14*
G01*
X2597302Y-3073400D03*
G01*
X2457297Y-3073400D03*
D15*
G01*
X1589912Y-2768600D03*
G01*
X1889912Y-2768600D03*
G01*
X2171700Y-2639212D03*
G01*
X2171700Y-2339212D03*
D16*
G01*
X1616989Y-581812D03*
G01*
X1682013Y-581812D03*
G01*
X1746986Y-581812D03*
G01*
X1812010Y-581812D03*
G01*
X1812010Y-281812D03*
G01*
X1746986Y-281812D03*
G01*
X1682013Y-281812D03*
G01*
X1616989Y-281812D03*
D17*
G01*
X1714500Y-391795D03*
D16*
G01*
X2713710Y-281812D03*
G01*
X2648686Y-281812D03*
G01*
X2583713Y-281812D03*
G01*
X2518689Y-281812D03*
G01*
X2518689Y-581812D03*
G01*
X2583713Y-581812D03*
G01*
X2648686Y-581812D03*
G01*
X2713710Y-581812D03*
D17*
G01*
X2616200Y-471804D03*
D18*
G01*
X2164182Y-952500D03*
G01*
X2077617Y-952500D03*
D19*
G01*
X1346200Y-1287882D03*
D20*
G01*
X1346200Y-1201318D03*
D19*
G01*
X2946400Y-576682D03*
D20*
G01*
X2946400Y-490118D03*
D21*
G01*
X621512Y-3509822D03*
G01*
X571525Y-3509822D03*
G01*
X521512Y-3509822D03*
G01*
X521512Y-3449802D03*
G01*
X571525Y-3449802D03*
D22*
G01*
X621512Y-3449802D03*
D23*
G01*
X401777Y-2742412D03*
G01*
X401777Y-2692425D03*
G01*
X401777Y-2642412D03*
G01*
X461797Y-2642412D03*
G01*
X461797Y-2692425D03*
D24*
G01*
X461797Y-2742412D03*
D25*
G01*
X2203602Y-345109D03*
G01*
X2063597Y-345109D03*
G01*
X2063597Y-620090D03*
G01*
X2203602Y-620090D03*
D26*
G01*
X1680489Y-1375689D03*
G01*
X1745513Y-1375689D03*
G01*
X1810512Y-1375689D03*
G01*
X1875510Y-1375689D03*
G01*
X1680489Y-935710D03*
G01*
X1745513Y-935710D03*
G01*
X1810512Y-935710D03*
G01*
X1875510Y-935710D03*
G01*
X3166389Y-727989D03*
G01*
X3231413Y-727989D03*
G01*
X3296411Y-727989D03*
G01*
X3361410Y-727989D03*
G01*
X3166389Y-288010D03*
G01*
X3231413Y-288010D03*
G01*
X3296411Y-288010D03*
G01*
X3361410Y-288010D03*
D27*
G01*
X2958591Y-2717012D03*
G01*
X2958591Y-2617012D03*
G01*
X3086608Y-2617012D03*
G01*
X3086608Y-2667025D03*
G01*
X3086608Y-2717012D03*
D28*
G01*
X786333Y-2559304D03*
G01*
X786333Y-2654300D03*
G01*
X786333Y-2749295D03*
D29*
G01*
X1017066Y-2749295D03*
G01*
X1017066Y-2559304D03*
D30*
G01*
X2451975Y-3302000D03*
G01*
X2602624Y-3302000D03*
D31*
G01*
X2589924Y-3543300D03*
G01*
X2439275Y-3543300D03*
G01*
X3936124Y-596900D03*
G01*
X3785475Y-596900D03*
G01*
X1916824Y-3098800D03*
G01*
X1766175Y-3098800D03*
G01*
X1421524Y-3492500D03*
G01*
X1270875Y-3492500D03*
D32*
G01*
X990600Y-3328275D03*
D33*
G01*
X990600Y-3478936D03*
D31*
G01*
X2996324Y-3543300D03*
G01*
X2845675Y-3543300D03*
D30*
G01*
X2921875Y-1689100D03*
G01*
X3072524Y-1689100D03*
D34*
G01*
X2101900Y-1890699D03*
G01*
X2101900Y-1840712D03*
G01*
X2101900Y-1790725D03*
G01*
X2101900Y-1740712D03*
G01*
X2101900Y-1690700D03*
G01*
X1631899Y-1690725D03*
G01*
X1631899Y-1740712D03*
G01*
X1631899Y-1790700D03*
G01*
X1631899Y-1840712D03*
G01*
X1631899Y-1890725D03*
D35*
G01*
X4357395Y-1104392D03*
G01*
X4357395Y-1231392D03*
G01*
X4357395Y-1358392D03*
G01*
X4357395Y-1485392D03*
G01*
X4357395Y-1612392D03*
G01*
X4357395Y-1739392D03*
G01*
X4357395Y-1866392D03*
G01*
X4357395Y-1993392D03*
G01*
X4357395Y-2120392D03*
G01*
X4357395Y-2247392D03*
G01*
X4357395Y-2374392D03*
G01*
X4357395Y-2501392D03*
G01*
X4357395Y-2628392D03*
G01*
X4357395Y-2755392D03*
D36*
G01*
X4533900Y-2883407D03*
G01*
X4660900Y-2883407D03*
G01*
X4787900Y-2883407D03*
G01*
X4914900Y-2883407D03*
G01*
X5041900Y-2883407D03*
G01*
X5168900Y-2883407D03*
G01*
X5295900Y-2883407D03*
G01*
X5422900Y-2883407D03*
G01*
X5549900Y-2883407D03*
G01*
X5676900Y-2883407D03*
G01*
X5803900Y-2883407D03*
G01*
X5930900Y-2880410D03*
D35*
G01*
X6107404Y-2755392D03*
G01*
X6107404Y-2628392D03*
G01*
X6107404Y-2501392D03*
G01*
X6107404Y-2374392D03*
G01*
X6107404Y-2247392D03*
G01*
X6107404Y-2120392D03*
G01*
X6107404Y-1993392D03*
G01*
X6107404Y-1866392D03*
G01*
X6107404Y-1739392D03*
G01*
X6107404Y-1612392D03*
G01*
X6107404Y-1485392D03*
G01*
X6107404Y-1358392D03*
G01*
X6107404Y-1231392D03*
G01*
X6107404Y-1104392D03*
D37*
G01*
X5222392Y-2016404D03*
G01*
X5082387Y-2016429D03*
G01*
X4942382Y-2016404D03*
G01*
X4942382Y-1736420D03*
G01*
X5082387Y-1736420D03*
G01*
X5222392Y-1736420D03*
G01*
X5222392Y-1876425D03*
G01*
X4942382Y-1876425D03*
G01*
X5082387Y-1876425D03*
D38*
G01*
X3907307Y-1155700D03*
G01*
X3907307Y-1060704D03*
G01*
X3907307Y-1250695D03*
G01*
X3687292Y-1060704D03*
G01*
X3687292Y-1250695D03*
D39*
G01*
X3324377Y-3587495D03*
G01*
X3324377Y-3397504D03*
G01*
X3584422Y-3397504D03*
G01*
X3584422Y-3492500D03*
G01*
X3584422Y-3587495D03*
D40*
G01*
X1849907Y-2389098D03*
G01*
X1849907Y-2324100D03*
G01*
X1849907Y-2259101D03*
G01*
X1629892Y-2259101D03*
G01*
X1629892Y-2324100D03*
G01*
X1629892Y-2389098D03*
G01*
X3064992Y-1217701D03*
G01*
X3064992Y-1282700D03*
G01*
X3064992Y-1347698D03*
G01*
X3285007Y-1347698D03*
G01*
X3285007Y-1282700D03*
G01*
X3285007Y-1217701D03*
D39*
G01*
X3152597Y-2089404D03*
G01*
X3152597Y-2279395D03*
G01*
X2892602Y-2089404D03*
G01*
X2892602Y-2279395D03*
G01*
X2892602Y-2184400D03*
D41*
G01*
X548589Y-1409700D03*
G01*
X548589Y-1536700D03*
G01*
X548589Y-1663700D03*
G01*
X548589Y-1790700D03*
G01*
X548589Y-1917700D03*
G01*
X548589Y-2044700D03*
G01*
X548589Y-2171700D03*
G01*
X1102410Y-1409700D03*
G01*
X1102410Y-1536700D03*
G01*
X1102410Y-1663700D03*
G01*
X1102410Y-1790700D03*
G01*
X1102410Y-1917700D03*
G01*
X1102410Y-2044700D03*
G01*
X1102410Y-2171700D03*
D42*
G01*
X2565400Y-1320800D03*
G01*
X2565400Y-1663700D03*
G01*
X2565400Y-2413000D03*
G01*
X2565400Y-2755900D03*
G01*
X266700Y-1320800D03*
G01*
X266700Y-2755900D03*
D43*
G01*
X4000500Y-1689100D03*
G01*
X4000500Y-1943100D03*
G01*
X3746500Y-1689100D03*
G01*
X3746500Y-1943100D03*
G01*
X3492500Y-1689100D03*
D44*
G01*
X3492500Y-1943100D03*
D45*
G01*
X1041400Y-571500D03*
G01*
X533400Y-571500D03*
D46*
G01*
X957046Y-3067227D03*
G01*
X2103729Y-3289122D03*
G01*
X4036364Y-1234135D03*
G01*
X1365732Y-2969488D03*
G01*
X1399920Y-2478608D03*
G01*
X3588410Y-3298215D03*
G01*
X3816121Y-2901061D03*
G01*
X3435375Y-2528239D03*
G01*
X3327679Y-1062710D03*
G01*
X1703628Y-2649245D03*
G01*
X2567025Y-3201720D03*
G01*
X1634515Y-2609824D03*
G01*
X1957400Y-2586558D03*
G01*
X2273934Y-2316734D03*
G01*
X2627401Y-2139975D03*
G01*
X2994990Y-1772386D03*
G01*
X2961513Y-1217701D03*
G01*
X3863847Y-883285D03*
G01*
X3713276Y-735355D03*
G01*
X4235627Y-1349908D03*
G01*
X4893360Y-1612392D03*
G01*
X2811754Y-657834D03*
G01*
X3131845Y-2202967D03*
G01*
X3234613Y-2734513D03*
G01*
X1478254Y-1912975D03*
G01*
X1428572Y-2067458D03*
G01*
X765784Y-3305022D03*
G01*
X4186631Y-3282314D03*
G01*
X4234154Y-2628392D03*
G01*
X729691Y-1605559D03*
G01*
X419227Y-2102205D03*
G01*
X391795Y-2581198D03*
G01*
X2351176Y-3514521D03*
G01*
X567334Y-2272969D03*
G01*
X1813305Y-1104163D03*
G01*
X3626713Y-704926D03*
G01*
X2798470Y-1378280D03*
G01*
X2308402Y-364464D03*
G01*
X1864309Y-1257147D03*
G01*
X2906268Y-2013483D03*
G01*
X366242Y-1806752D03*
G01*
X1648891Y-2195220D03*
G01*
X2010638Y-2723946D03*
G01*
X3084677Y-3543300D03*
G01*
X900125Y-3478936D03*
G01*
X3029686Y-2376855D03*
G01*
X2403475Y-2243937D03*
G01*
X2751912Y-2437003D03*
G01*
X2789936Y-2866821D03*
G01*
X4140479Y-3117773D03*
G01*
X2128697Y-2474823D03*
G01*
X3809212Y-2993364D03*
G01*
X1829587Y-1626057D03*
G01*
X5668187Y-2725953D03*
G01*
X5547004Y-2761157D03*
G01*
X1631695Y-2000935D03*
G01*
X5416727Y-1956714D03*
G01*
X1246962Y-1628038D03*
D47*
G01*
X2220442Y-952500D03*
G01*
X2514600Y-622300D03*
M02*
