G04 Layer: BottomLayer*
G04 EasyEDA v6.5.46, 2025-04-11 15:52:01*
G04 898f7cb4de8248389c9d67f31726504a,899b5eb0d7ee4baeb7bb73a579ea36e5,10*
G04 Gerber Generator version 0.2*
G04 Scale: 100 percent, Rotated: No, Reflected: No *
G04 Dimensions in millimeters *
G04 leading zeros omitted , absolute positions ,4 integer and 5 decimal *
%FSLAX45Y45*%
%MOMM*%

%AMMACRO1*21,1,$1,$2,0,0,$3*%
%ADD10C,0.2540*%
%ADD11MACRO1,2X2X0.0000*%
%ADD12C,1.5748*%
%ADD13R,1.5748X1.5748*%
%ADD14C,2.2000*%
%ADD15C,0.6096*%
%ADD16C,0.6200*%

%LPD*%
D10*
X2220442Y-952500D02*
G01*
X2220442Y-916457D01*
X2514600Y-622300D01*
X5416727Y-1956714D02*
G01*
X4000982Y-540969D01*
X2293696Y-540969D01*
X1246962Y-1587703D01*
X1246962Y-1628038D01*
X1631695Y-2000935D02*
G01*
X1564411Y-2068220D01*
X1564411Y-2622524D01*
X2298827Y-3356940D01*
X4951222Y-3356940D01*
X5547004Y-2761157D01*
X5668187Y-2725953D02*
G01*
X5668187Y-2297684D01*
X3966921Y-596417D01*
X2788411Y-596417D01*
X1829587Y-1555242D01*
X1829587Y-1626057D01*
X2128697Y-2474823D02*
G01*
X2128697Y-2575382D01*
X2546680Y-2993364D01*
X3809212Y-2993364D01*
X2751912Y-2437003D02*
G01*
X2751912Y-2341930D01*
X2653918Y-2243937D01*
X2403475Y-2243937D01*
X2789936Y-2866821D02*
G01*
X2816123Y-2840634D01*
X3863340Y-2840634D01*
X4140479Y-3117773D01*
X900125Y-3478936D02*
G01*
X856894Y-3478936D01*
X695147Y-3317189D01*
X695147Y-2713609D01*
X1437233Y-1971522D01*
X1562328Y-1971522D01*
X1594357Y-1939493D01*
X1683867Y-1939493D01*
X2285568Y-2541193D01*
X2865348Y-2541193D01*
X3029686Y-2376855D01*
X3084677Y-3543300D02*
G01*
X2997352Y-3455974D01*
X923086Y-3455974D01*
X900125Y-3478936D01*
X2010638Y-2723946D02*
G01*
X2015947Y-2718638D01*
X2015947Y-2562275D01*
X1648891Y-2195220D01*
X366242Y-1806752D02*
G01*
X360679Y-1812315D01*
X360679Y-2149119D01*
X546176Y-2334615D01*
X942720Y-2334615D01*
X1432052Y-1845284D01*
X2738069Y-1845284D01*
X2906268Y-2013483D01*
X1864309Y-1257147D02*
G01*
X1424965Y-1696491D01*
X1225550Y-1696491D01*
X1182954Y-1653895D01*
X1182954Y-1489913D01*
X2308402Y-364464D01*
X2798470Y-1378280D02*
G01*
X2798470Y-1297914D01*
X3391458Y-704926D01*
X3626713Y-704926D01*
X1813305Y-1104163D02*
G01*
X1934845Y-1225702D01*
X1934845Y-1284808D01*
X946683Y-2272969D01*
X567334Y-2272969D01*
X2351176Y-3514521D02*
G01*
X2310079Y-3555619D01*
X853414Y-3555619D01*
X403707Y-3105912D01*
X403707Y-2593111D01*
X391795Y-2581198D01*
X419227Y-2102205D02*
G01*
X729691Y-1791741D01*
X729691Y-1605559D01*
X4234154Y-2628392D02*
G01*
X4234154Y-3234791D01*
X4186631Y-3282314D01*
X765784Y-3305022D02*
G01*
X765784Y-2730245D01*
X1428572Y-2067458D01*
X1478254Y-1912975D02*
G01*
X1500479Y-1890750D01*
X2629738Y-1890750D01*
X3234613Y-2495626D01*
X3234613Y-2734513D01*
X3131845Y-2202967D02*
G01*
X3131845Y-2156231D01*
X2936443Y-1960829D01*
X2936443Y-1792528D01*
X2636113Y-1492199D01*
X2487726Y-1492199D01*
X2434234Y-1438706D01*
X2434234Y-1035354D01*
X2811754Y-657834D01*
X4235627Y-1349908D02*
G01*
X4630877Y-1349908D01*
X4893360Y-1612392D01*
X3492500Y-1689100D02*
G01*
X3492500Y-956132D01*
X3713276Y-735355D01*
X3746500Y-1943100D02*
G01*
X3635375Y-1831975D01*
X3635375Y-1111757D01*
X3863847Y-883285D01*
X2994990Y-1772386D02*
G01*
X2961513Y-1738909D01*
X2961513Y-1217701D01*
X2627401Y-2139975D02*
G01*
X2424633Y-2139975D01*
X2273934Y-2290673D01*
X2273934Y-2316734D01*
X1957400Y-2586558D02*
G01*
X1657781Y-2586558D01*
X1634515Y-2609824D01*
X2567025Y-3201720D02*
G01*
X2256104Y-3201720D01*
X1703628Y-2649245D01*
X3816121Y-2901061D02*
G01*
X3882034Y-2966973D01*
X3882034Y-3004591D01*
X3588410Y-3298215D01*
X3435375Y-2528239D02*
G01*
X3327679Y-2420543D01*
X3327679Y-1062710D01*
X1365732Y-2969488D02*
G01*
X1365732Y-2512796D01*
X1399920Y-2478608D01*
X2565400Y-2755900D02*
G01*
X2693365Y-2755900D01*
X2693365Y-2755900D02*
G01*
X2732735Y-2795270D01*
X3299764Y-2795270D01*
X4123385Y-1971649D01*
X4123385Y-1321155D01*
X4036364Y-1234135D01*
X2565400Y-1320800D02*
G01*
X2693365Y-1320800D01*
X4000500Y-1689100D02*
G01*
X3977817Y-1666417D01*
X3977817Y-914425D01*
X3709771Y-646379D01*
X3367786Y-646379D01*
X2693365Y-1320800D01*
X2103729Y-3289122D02*
G01*
X1881835Y-3067227D01*
X957046Y-3067227D01*
D11*
G01*
X2565400Y-1320800D03*
G01*
X2565400Y-1663700D03*
G01*
X2565400Y-2413000D03*
G01*
X2565400Y-2755900D03*
G01*
X266700Y-1320800D03*
G01*
X266700Y-2755900D03*
D12*
G01*
X4000500Y-1689100D03*
G01*
X4000500Y-1943100D03*
G01*
X3746500Y-1689100D03*
G01*
X3746500Y-1943100D03*
G01*
X3492500Y-1689100D03*
D13*
G01*
X3492500Y-1943100D03*
D14*
G01*
X1041400Y-571500D03*
G01*
X533400Y-571500D03*
D15*
G01*
X957046Y-3067227D03*
G01*
X2103729Y-3289122D03*
G01*
X4036364Y-1234135D03*
G01*
X1365732Y-2969488D03*
G01*
X1399920Y-2478608D03*
G01*
X3588410Y-3298215D03*
G01*
X3816121Y-2901061D03*
G01*
X3435375Y-2528239D03*
G01*
X3327679Y-1062710D03*
G01*
X1703628Y-2649245D03*
G01*
X2567025Y-3201720D03*
G01*
X1634515Y-2609824D03*
G01*
X1957400Y-2586558D03*
G01*
X2273934Y-2316734D03*
G01*
X2627401Y-2139975D03*
G01*
X2994990Y-1772386D03*
G01*
X2961513Y-1217701D03*
G01*
X3863847Y-883285D03*
G01*
X3713276Y-735355D03*
G01*
X4235627Y-1349908D03*
G01*
X4893360Y-1612392D03*
G01*
X2811754Y-657834D03*
G01*
X3131845Y-2202967D03*
G01*
X3234613Y-2734513D03*
G01*
X1478254Y-1912975D03*
G01*
X1428572Y-2067458D03*
G01*
X765784Y-3305022D03*
G01*
X4186631Y-3282314D03*
G01*
X4234154Y-2628392D03*
G01*
X729691Y-1605559D03*
G01*
X419227Y-2102205D03*
G01*
X391795Y-2581198D03*
G01*
X2351176Y-3514521D03*
G01*
X567334Y-2272969D03*
G01*
X1813305Y-1104163D03*
G01*
X3626713Y-704926D03*
G01*
X2798470Y-1378280D03*
G01*
X2308402Y-364464D03*
G01*
X1864309Y-1257147D03*
G01*
X2906268Y-2013483D03*
G01*
X366242Y-1806752D03*
G01*
X1648891Y-2195220D03*
G01*
X2010638Y-2723946D03*
G01*
X3084677Y-3543300D03*
G01*
X900125Y-3478936D03*
G01*
X3029686Y-2376855D03*
G01*
X2403475Y-2243937D03*
G01*
X2751912Y-2437003D03*
G01*
X2789936Y-2866821D03*
G01*
X4140479Y-3117773D03*
G01*
X2128697Y-2474823D03*
G01*
X3809212Y-2993364D03*
G01*
X1829587Y-1626057D03*
G01*
X5668187Y-2725953D03*
G01*
X5547004Y-2761157D03*
G01*
X1631695Y-2000935D03*
G01*
X5416727Y-1956714D03*
G01*
X1246962Y-1628038D03*
D16*
G01*
X2220442Y-952500D03*
G01*
X2514600Y-622300D03*
M02*
