G04 Layer: TopSilkscreenLayer*
G04 EasyEDA v6.5.46, 2025-04-11 15:52:01*
G04 898f7cb4de8248389c9d67f31726504a,899b5eb0d7ee4baeb7bb73a579ea36e5,10*
G04 Gerber Generator version 0.2*
G04 Scale: 100 percent, Rotated: No, Reflected: No *
G04 Dimensions in millimeters *
G04 leading zeros omitted , absolute positions ,4 integer and 5 decimal *
%FSLAX45Y45*%
%MOMM*%

%ADD10C,0.1524*%
%ADD11C,0.2540*%
%ADD12C,0.2032*%
%ADD13C,0.2000*%
%ADD14C,0.1500*%
%ADD15C,0.1000*%
%ADD16C,0.3000*%
%ADD17C,0.0113*%

%LPD*%
D10*
X712978Y-2869692D02*
G01*
X707644Y-2859278D01*
X697229Y-2848863D01*
X687070Y-2843784D01*
X666242Y-2843784D01*
X655828Y-2848863D01*
X645413Y-2859278D01*
X640079Y-2869692D01*
X635000Y-2885439D01*
X635000Y-2911347D01*
X640079Y-2926842D01*
X645413Y-2937255D01*
X655828Y-2947670D01*
X666242Y-2952750D01*
X687070Y-2952750D01*
X697229Y-2947670D01*
X707644Y-2937255D01*
X712978Y-2926842D01*
X747268Y-2864612D02*
G01*
X757681Y-2859278D01*
X773176Y-2843784D01*
X773176Y-2952750D01*
X1944877Y-3225292D02*
G01*
X1939543Y-3214878D01*
X1929129Y-3204463D01*
X1918970Y-3199384D01*
X1898142Y-3199384D01*
X1887728Y-3204463D01*
X1877313Y-3214878D01*
X1871979Y-3225292D01*
X1866900Y-3241039D01*
X1866900Y-3266947D01*
X1871979Y-3282442D01*
X1877313Y-3292855D01*
X1887728Y-3303270D01*
X1898142Y-3308350D01*
X1918970Y-3308350D01*
X1929129Y-3303270D01*
X1939543Y-3292855D01*
X1944877Y-3282442D01*
X1989581Y-3199384D02*
G01*
X2046731Y-3199384D01*
X2015490Y-3241039D01*
X2030984Y-3241039D01*
X2041397Y-3246120D01*
X2046731Y-3251200D01*
X2051811Y-3266947D01*
X2051811Y-3277362D01*
X2046731Y-3292855D01*
X2036318Y-3303270D01*
X2020570Y-3308350D01*
X2005075Y-3308350D01*
X1989581Y-3303270D01*
X1984247Y-3298189D01*
X1979168Y-3287776D01*
X1322578Y-2869692D02*
G01*
X1317244Y-2859278D01*
X1306829Y-2848863D01*
X1296670Y-2843784D01*
X1275842Y-2843784D01*
X1265428Y-2848863D01*
X1255013Y-2859278D01*
X1249679Y-2869692D01*
X1244600Y-2885439D01*
X1244600Y-2911347D01*
X1249679Y-2926842D01*
X1255013Y-2937255D01*
X1265428Y-2947670D01*
X1275842Y-2952750D01*
X1296670Y-2952750D01*
X1306829Y-2947670D01*
X1317244Y-2937255D01*
X1322578Y-2926842D01*
X1408684Y-2843784D02*
G01*
X1356868Y-2916428D01*
X1434845Y-2916428D01*
X1408684Y-2843784D02*
G01*
X1408684Y-2952750D01*
X3439922Y-2489707D02*
G01*
X3445256Y-2500121D01*
X3455670Y-2510536D01*
X3465829Y-2515615D01*
X3486658Y-2515615D01*
X3497072Y-2510536D01*
X3507486Y-2500121D01*
X3512820Y-2489707D01*
X3517900Y-2473960D01*
X3517900Y-2448052D01*
X3512820Y-2432557D01*
X3507486Y-2422144D01*
X3497072Y-2411729D01*
X3486658Y-2406650D01*
X3465829Y-2406650D01*
X3455670Y-2411729D01*
X3445256Y-2422144D01*
X3439922Y-2432557D01*
X3343402Y-2515615D02*
G01*
X3395218Y-2515615D01*
X3400552Y-2468879D01*
X3395218Y-2473960D01*
X3379724Y-2479294D01*
X3364229Y-2479294D01*
X3348481Y-2473960D01*
X3338068Y-2463800D01*
X3332988Y-2448052D01*
X3332988Y-2437637D01*
X3338068Y-2422144D01*
X3348481Y-2411729D01*
X3364229Y-2406650D01*
X3379724Y-2406650D01*
X3395218Y-2411729D01*
X3400552Y-2416810D01*
X3405631Y-2427223D01*
X3249422Y-3251707D02*
G01*
X3254756Y-3262121D01*
X3265170Y-3272536D01*
X3275329Y-3277615D01*
X3296158Y-3277615D01*
X3306572Y-3272536D01*
X3316986Y-3262121D01*
X3322320Y-3251707D01*
X3327400Y-3235960D01*
X3327400Y-3210052D01*
X3322320Y-3194557D01*
X3316986Y-3184144D01*
X3306572Y-3173729D01*
X3296158Y-3168650D01*
X3275329Y-3168650D01*
X3265170Y-3173729D01*
X3254756Y-3184144D01*
X3249422Y-3194557D01*
X3152902Y-3262121D02*
G01*
X3157981Y-3272536D01*
X3173729Y-3277615D01*
X3183890Y-3277615D01*
X3199638Y-3272536D01*
X3210052Y-3256787D01*
X3215131Y-3230879D01*
X3215131Y-3204971D01*
X3210052Y-3184144D01*
X3199638Y-3173729D01*
X3183890Y-3168650D01*
X3178809Y-3168650D01*
X3163315Y-3173729D01*
X3152902Y-3184144D01*
X3147568Y-3199637D01*
X3147568Y-3204971D01*
X3152902Y-3220465D01*
X3163315Y-3230879D01*
X3178809Y-3235960D01*
X3183890Y-3235960D01*
X3199638Y-3230879D01*
X3210052Y-3220465D01*
X3215131Y-3204971D01*
X3452622Y-2858007D02*
G01*
X3457956Y-2868421D01*
X3468370Y-2878836D01*
X3478529Y-2883915D01*
X3499358Y-2883915D01*
X3509772Y-2878836D01*
X3520186Y-2868421D01*
X3525520Y-2858007D01*
X3530600Y-2842260D01*
X3530600Y-2816352D01*
X3525520Y-2800857D01*
X3520186Y-2790444D01*
X3509772Y-2780029D01*
X3499358Y-2774950D01*
X3478529Y-2774950D01*
X3468370Y-2780029D01*
X3457956Y-2790444D01*
X3452622Y-2800857D01*
X3345688Y-2883915D02*
G01*
X3397504Y-2774950D01*
X3418331Y-2883915D02*
G01*
X3345688Y-2883915D01*
X2795777Y-3034792D02*
G01*
X2790443Y-3024378D01*
X2780029Y-3013963D01*
X2769870Y-3008884D01*
X2749041Y-3008884D01*
X2738627Y-3013963D01*
X2728213Y-3024378D01*
X2722879Y-3034792D01*
X2717800Y-3050539D01*
X2717800Y-3076447D01*
X2722879Y-3091942D01*
X2728213Y-3102355D01*
X2738627Y-3112770D01*
X2749041Y-3117850D01*
X2769870Y-3117850D01*
X2780029Y-3112770D01*
X2790443Y-3102355D01*
X2795777Y-3091942D01*
X2835147Y-3034792D02*
G01*
X2835147Y-3029712D01*
X2840481Y-3019297D01*
X2845561Y-3013963D01*
X2855975Y-3008884D01*
X2876804Y-3008884D01*
X2887218Y-3013963D01*
X2892297Y-3019297D01*
X2897631Y-3029712D01*
X2897631Y-3040126D01*
X2892297Y-3050539D01*
X2881884Y-3066034D01*
X2830068Y-3117850D01*
X2902711Y-3117850D01*
X1727210Y-2517051D02*
G01*
X1727210Y-2626017D01*
X1727210Y-2517051D02*
G01*
X1763532Y-2517051D01*
X1779280Y-2522131D01*
X1789440Y-2532545D01*
X1794774Y-2542959D01*
X1799854Y-2558707D01*
X1799854Y-2584615D01*
X1794774Y-2600109D01*
X1789440Y-2610523D01*
X1779280Y-2620937D01*
X1763532Y-2626017D01*
X1727210Y-2626017D01*
X1834144Y-2537879D02*
G01*
X1844558Y-2532545D01*
X1860306Y-2517051D01*
X1860306Y-2626017D01*
X1920151Y-2501889D02*
G01*
X2029117Y-2501889D01*
X1920151Y-2501889D02*
G01*
X1920151Y-2465567D01*
X1925231Y-2449819D01*
X1935645Y-2439659D01*
X1946059Y-2434325D01*
X1961807Y-2429245D01*
X1987715Y-2429245D01*
X2003209Y-2434325D01*
X2013623Y-2439659D01*
X2024037Y-2449819D01*
X2029117Y-2465567D01*
X2029117Y-2501889D01*
X1946059Y-2389621D02*
G01*
X1940979Y-2389621D01*
X1930565Y-2384541D01*
X1925231Y-2379207D01*
X1920151Y-2368793D01*
X1920151Y-2348219D01*
X1925231Y-2337805D01*
X1930565Y-2332471D01*
X1940979Y-2327391D01*
X1951393Y-2327391D01*
X1961807Y-2332471D01*
X1977301Y-2342885D01*
X2029117Y-2394955D01*
X2029117Y-2322057D01*
X3798570Y-1421384D02*
G01*
X3798570Y-1504442D01*
X3793236Y-1520189D01*
X3788156Y-1525270D01*
X3777741Y-1530350D01*
X3767327Y-1530350D01*
X3756913Y-1525270D01*
X3751579Y-1520189D01*
X3746500Y-1504442D01*
X3746500Y-1494028D01*
X3837940Y-1447292D02*
G01*
X3837940Y-1442212D01*
X3843020Y-1431797D01*
X3848354Y-1426463D01*
X3858768Y-1421384D01*
X3879595Y-1421384D01*
X3890009Y-1426463D01*
X3895090Y-1431797D01*
X3900170Y-1442212D01*
X3900170Y-1452626D01*
X3895090Y-1463039D01*
X3884675Y-1478534D01*
X3832859Y-1530350D01*
X3905504Y-1530350D01*
X838200Y-1144015D02*
G01*
X838200Y-1035050D01*
X838200Y-1144015D02*
G01*
X791463Y-1144015D01*
X775970Y-1138936D01*
X770636Y-1133602D01*
X765555Y-1123187D01*
X765555Y-1107694D01*
X770636Y-1097279D01*
X775970Y-1092200D01*
X791463Y-1086865D01*
X838200Y-1086865D01*
X731265Y-1123187D02*
G01*
X720852Y-1128521D01*
X705104Y-1144015D01*
X705104Y-1035050D01*
X1720342Y-87871D02*
G01*
X1709928Y-92951D01*
X1699513Y-103365D01*
X1694179Y-113779D01*
X1689100Y-129527D01*
X1689100Y-155435D01*
X1694179Y-170929D01*
X1699513Y-181343D01*
X1709928Y-191757D01*
X1720342Y-196837D01*
X1741170Y-196837D01*
X1751329Y-191757D01*
X1761744Y-181343D01*
X1767078Y-170929D01*
X1772157Y-155435D01*
X1772157Y-129527D01*
X1767078Y-113779D01*
X1761744Y-103365D01*
X1751329Y-92951D01*
X1741170Y-87871D01*
X1720342Y-87871D01*
X1735836Y-176263D02*
G01*
X1767078Y-207251D01*
X1806447Y-108699D02*
G01*
X1816862Y-103365D01*
X1832610Y-87871D01*
X1832610Y-196837D01*
X2610358Y-775728D02*
G01*
X2620772Y-770648D01*
X2631186Y-760234D01*
X2636520Y-749820D01*
X2641600Y-734072D01*
X2641600Y-708164D01*
X2636520Y-692670D01*
X2631186Y-682256D01*
X2620772Y-671842D01*
X2610358Y-666762D01*
X2589529Y-666762D01*
X2579370Y-671842D01*
X2568956Y-682256D01*
X2563622Y-692670D01*
X2558541Y-708164D01*
X2558541Y-734072D01*
X2563622Y-749820D01*
X2568956Y-760234D01*
X2579370Y-770648D01*
X2589529Y-775728D01*
X2610358Y-775728D01*
X2594863Y-687336D02*
G01*
X2563622Y-656348D01*
X2518918Y-749820D02*
G01*
X2518918Y-754900D01*
X2513838Y-765314D01*
X2508504Y-770648D01*
X2498090Y-775728D01*
X2477515Y-775728D01*
X2467102Y-770648D01*
X2461768Y-765314D01*
X2456688Y-754900D01*
X2456688Y-744486D01*
X2461768Y-734072D01*
X2472181Y-718578D01*
X2524252Y-666762D01*
X2451354Y-666762D01*
X2120900Y-760984D02*
G01*
X2120900Y-869950D01*
X2120900Y-760984D02*
G01*
X2167636Y-760984D01*
X2183129Y-766063D01*
X2188463Y-771397D01*
X2193543Y-781812D01*
X2193543Y-792226D01*
X2188463Y-802639D01*
X2183129Y-807720D01*
X2167636Y-812800D01*
X2120900Y-812800D01*
X2157222Y-812800D02*
G01*
X2193543Y-869950D01*
X2227834Y-781812D02*
G01*
X2238247Y-776478D01*
X2253995Y-760984D01*
X2253995Y-869950D01*
X1537715Y-1244600D02*
G01*
X1428750Y-1244600D01*
X1537715Y-1244600D02*
G01*
X1537715Y-1291336D01*
X1532636Y-1306829D01*
X1527302Y-1312163D01*
X1516887Y-1317244D01*
X1506473Y-1317244D01*
X1496060Y-1312163D01*
X1490979Y-1306829D01*
X1485900Y-1291336D01*
X1485900Y-1244600D01*
X1485900Y-1280921D02*
G01*
X1428750Y-1317244D01*
X1511807Y-1356868D02*
G01*
X1516887Y-1356868D01*
X1527302Y-1361947D01*
X1532636Y-1367281D01*
X1537715Y-1377695D01*
X1537715Y-1398270D01*
X1532636Y-1408684D01*
X1527302Y-1414018D01*
X1516887Y-1419097D01*
X1506473Y-1419097D01*
X1496060Y-1414018D01*
X1480565Y-1403604D01*
X1428750Y-1351534D01*
X1428750Y-1424431D01*
X2998215Y-228600D02*
G01*
X2889250Y-228600D01*
X2998215Y-228600D02*
G01*
X2998215Y-275336D01*
X2993136Y-290829D01*
X2987802Y-296163D01*
X2977388Y-301244D01*
X2966974Y-301244D01*
X2956559Y-296163D01*
X2951479Y-290829D01*
X2946400Y-275336D01*
X2946400Y-228600D01*
X2946400Y-264921D02*
G01*
X2889250Y-301244D01*
X2998215Y-345947D02*
G01*
X2998215Y-403097D01*
X2956559Y-372110D01*
X2956559Y-387604D01*
X2951479Y-398018D01*
X2946400Y-403097D01*
X2930652Y-408431D01*
X2920238Y-408431D01*
X2904743Y-403097D01*
X2894329Y-392684D01*
X2889250Y-377189D01*
X2889250Y-361695D01*
X2894329Y-345947D01*
X2899409Y-340868D01*
X2909824Y-335534D01*
X318782Y-3482098D02*
G01*
X396760Y-3482098D01*
X412254Y-3477018D01*
X422668Y-3466604D01*
X427748Y-3450856D01*
X427748Y-3440442D01*
X422668Y-3424948D01*
X412254Y-3414534D01*
X396760Y-3409454D01*
X318782Y-3409454D01*
X344690Y-3369830D02*
G01*
X339610Y-3369830D01*
X329196Y-3364750D01*
X323862Y-3359416D01*
X318782Y-3349002D01*
X318782Y-3328428D01*
X323862Y-3318014D01*
X329196Y-3312680D01*
X339610Y-3307600D01*
X350024Y-3307600D01*
X360438Y-3312680D01*
X375932Y-3323094D01*
X427748Y-3375164D01*
X427748Y-3302266D01*
X429501Y-2439682D02*
G01*
X429501Y-2517660D01*
X434581Y-2533154D01*
X444995Y-2543568D01*
X460743Y-2548648D01*
X471157Y-2548648D01*
X486651Y-2543568D01*
X497065Y-2533154D01*
X502145Y-2517660D01*
X502145Y-2439682D01*
X562597Y-2439682D02*
G01*
X546849Y-2444762D01*
X541769Y-2455176D01*
X541769Y-2465590D01*
X546849Y-2476004D01*
X557263Y-2481338D01*
X578091Y-2486418D01*
X593585Y-2491498D01*
X603999Y-2501912D01*
X609333Y-2512326D01*
X609333Y-2528074D01*
X603999Y-2538488D01*
X598919Y-2543568D01*
X583171Y-2548648D01*
X562597Y-2548648D01*
X546849Y-2543568D01*
X541769Y-2538488D01*
X536435Y-2528074D01*
X536435Y-2512326D01*
X541769Y-2501912D01*
X552183Y-2491498D01*
X567677Y-2486418D01*
X588505Y-2481338D01*
X598919Y-2476004D01*
X603999Y-2465590D01*
X603999Y-2455176D01*
X598919Y-2444762D01*
X583171Y-2439682D01*
X562597Y-2439682D01*
X2411806Y-459397D02*
G01*
X2333828Y-459397D01*
X2318334Y-464477D01*
X2307920Y-474891D01*
X2302840Y-490639D01*
X2302840Y-501053D01*
X2307920Y-516547D01*
X2318334Y-526961D01*
X2333828Y-532041D01*
X2411806Y-532041D01*
X2411806Y-576745D02*
G01*
X2411806Y-633895D01*
X2370150Y-602907D01*
X2370150Y-618401D01*
X2365070Y-628815D01*
X2359990Y-633895D01*
X2344242Y-639229D01*
X2333828Y-639229D01*
X2318334Y-633895D01*
X2307920Y-623481D01*
X2302840Y-607987D01*
X2302840Y-592493D01*
X2307920Y-576745D01*
X2313000Y-571665D01*
X2323414Y-566331D01*
X1752600Y-710184D02*
G01*
X1752600Y-788162D01*
X1757679Y-803655D01*
X1768094Y-814070D01*
X1783842Y-819150D01*
X1794255Y-819150D01*
X1809750Y-814070D01*
X1820163Y-803655D01*
X1825244Y-788162D01*
X1825244Y-710184D01*
X1911604Y-710184D02*
G01*
X1859534Y-782828D01*
X1937511Y-782828D01*
X1911604Y-710184D02*
G01*
X1911604Y-819150D01*
X3238500Y-62484D02*
G01*
X3238500Y-140462D01*
X3243579Y-155955D01*
X3253993Y-166370D01*
X3269741Y-171450D01*
X3280156Y-171450D01*
X3295650Y-166370D01*
X3306063Y-155955D01*
X3311143Y-140462D01*
X3311143Y-62484D01*
X3407918Y-62484D02*
G01*
X3355847Y-62484D01*
X3350768Y-109220D01*
X3355847Y-104139D01*
X3371595Y-98805D01*
X3387090Y-98805D01*
X3402584Y-104139D01*
X3412997Y-114300D01*
X3418331Y-130047D01*
X3418331Y-140462D01*
X3412997Y-155955D01*
X3402584Y-166370D01*
X3387090Y-171450D01*
X3371595Y-171450D01*
X3355847Y-166370D01*
X3350768Y-161289D01*
X3345434Y-150876D01*
X3010408Y-2424696D02*
G01*
X3010408Y-2502674D01*
X3015488Y-2518168D01*
X3025902Y-2528582D01*
X3041650Y-2533662D01*
X3052063Y-2533662D01*
X3067558Y-2528582D01*
X3077972Y-2518168D01*
X3083052Y-2502674D01*
X3083052Y-2424696D01*
X3179825Y-2440190D02*
G01*
X3174491Y-2429776D01*
X3158997Y-2424696D01*
X3148584Y-2424696D01*
X3133090Y-2429776D01*
X3122675Y-2445524D01*
X3117341Y-2471432D01*
X3117341Y-2497340D01*
X3122675Y-2518168D01*
X3133090Y-2528582D01*
X3148584Y-2533662D01*
X3153918Y-2533662D01*
X3169411Y-2528582D01*
X3179825Y-2518168D01*
X3184906Y-2502674D01*
X3184906Y-2497340D01*
X3179825Y-2481846D01*
X3169411Y-2471432D01*
X3153918Y-2466352D01*
X3148584Y-2466352D01*
X3133090Y-2471432D01*
X3122675Y-2481846D01*
X3117341Y-2497340D01*
X1220215Y-2628900D02*
G01*
X1142237Y-2628900D01*
X1126744Y-2633979D01*
X1116329Y-2644394D01*
X1111250Y-2660142D01*
X1111250Y-2670555D01*
X1116329Y-2686050D01*
X1126744Y-2696463D01*
X1142237Y-2701544D01*
X1220215Y-2701544D01*
X1220215Y-2808731D02*
G01*
X1111250Y-2756662D01*
X1220215Y-2735834D02*
G01*
X1220215Y-2808731D01*
X2730500Y-3237484D02*
G01*
X2730500Y-3315462D01*
X2735579Y-3330955D01*
X2745993Y-3341370D01*
X2761741Y-3346450D01*
X2772156Y-3346450D01*
X2787650Y-3341370D01*
X2798063Y-3330955D01*
X2803143Y-3315462D01*
X2803143Y-3237484D01*
X2904997Y-3273805D02*
G01*
X2899918Y-3289300D01*
X2889504Y-3299713D01*
X2874009Y-3305047D01*
X2868675Y-3305047D01*
X2853181Y-3299713D01*
X2842768Y-3289300D01*
X2837434Y-3273805D01*
X2837434Y-3268726D01*
X2842768Y-3252978D01*
X2853181Y-3242563D01*
X2868675Y-3237484D01*
X2874009Y-3237484D01*
X2889504Y-3242563D01*
X2899918Y-3252978D01*
X2904997Y-3273805D01*
X2904997Y-3299713D01*
X2899918Y-3325876D01*
X2889504Y-3341370D01*
X2874009Y-3346450D01*
X2863595Y-3346450D01*
X2847847Y-3341370D01*
X2842768Y-3330955D01*
X2108200Y-3491484D02*
G01*
X2108200Y-3569462D01*
X2113279Y-3584955D01*
X2123693Y-3595370D01*
X2139441Y-3600450D01*
X2149856Y-3600450D01*
X2165350Y-3595370D01*
X2175763Y-3584955D01*
X2180843Y-3569462D01*
X2180843Y-3491484D01*
X2215134Y-3512312D02*
G01*
X2225547Y-3506978D01*
X2241295Y-3491484D01*
X2241295Y-3600450D01*
X2306574Y-3491484D02*
G01*
X2291079Y-3496563D01*
X2280665Y-3512312D01*
X2275586Y-3538220D01*
X2275586Y-3553713D01*
X2280665Y-3579876D01*
X2291079Y-3595370D01*
X2306574Y-3600450D01*
X2316988Y-3600450D01*
X2332736Y-3595370D01*
X2343150Y-3579876D01*
X2348229Y-3553713D01*
X2348229Y-3538220D01*
X2343150Y-3512312D01*
X2332736Y-3496563D01*
X2316988Y-3491484D01*
X2306574Y-3491484D01*
X3860800Y-379984D02*
G01*
X3860800Y-457962D01*
X3865879Y-473455D01*
X3876293Y-483870D01*
X3892041Y-488950D01*
X3902456Y-488950D01*
X3917950Y-483870D01*
X3928363Y-473455D01*
X3933443Y-457962D01*
X3933443Y-379984D01*
X3967734Y-400812D02*
G01*
X3978147Y-395478D01*
X3993895Y-379984D01*
X3993895Y-488950D01*
X4090415Y-379984D02*
G01*
X4038600Y-379984D01*
X4033265Y-426720D01*
X4038600Y-421639D01*
X4054093Y-416305D01*
X4069588Y-416305D01*
X4085336Y-421639D01*
X4095750Y-431800D01*
X4100829Y-447547D01*
X4100829Y-457962D01*
X4095750Y-473455D01*
X4085336Y-483870D01*
X4069588Y-488950D01*
X4054093Y-488950D01*
X4038600Y-483870D01*
X4033265Y-478789D01*
X4028186Y-468376D01*
X1841500Y-2881884D02*
G01*
X1841500Y-2959862D01*
X1846579Y-2975355D01*
X1856994Y-2985770D01*
X1872742Y-2990850D01*
X1883155Y-2990850D01*
X1898650Y-2985770D01*
X1909063Y-2975355D01*
X1914144Y-2959862D01*
X1914144Y-2881884D01*
X1948434Y-2902712D02*
G01*
X1958847Y-2897378D01*
X1974595Y-2881884D01*
X1974595Y-2990850D01*
X2034793Y-2881884D02*
G01*
X2019300Y-2886963D01*
X2013965Y-2897378D01*
X2013965Y-2907792D01*
X2019300Y-2918205D01*
X2029459Y-2923539D01*
X2050288Y-2928620D01*
X2066036Y-2933700D01*
X2076450Y-2944113D01*
X2081529Y-2954528D01*
X2081529Y-2970276D01*
X2076450Y-2980689D01*
X2071115Y-2985770D01*
X2055622Y-2990850D01*
X2034793Y-2990850D01*
X2019300Y-2985770D01*
X2013965Y-2980689D01*
X2008886Y-2970276D01*
X2008886Y-2954528D01*
X2013965Y-2944113D01*
X2024379Y-2933700D01*
X2039874Y-2928620D01*
X2060702Y-2923539D01*
X2071115Y-2918205D01*
X2076450Y-2907792D01*
X2076450Y-2897378D01*
X2071115Y-2886963D01*
X2055622Y-2881884D01*
X2034793Y-2881884D01*
X1346200Y-3275584D02*
G01*
X1346200Y-3353562D01*
X1351279Y-3369055D01*
X1361694Y-3379470D01*
X1377442Y-3384550D01*
X1387855Y-3384550D01*
X1403350Y-3379470D01*
X1413763Y-3369055D01*
X1418844Y-3353562D01*
X1418844Y-3275584D01*
X1453134Y-3296412D02*
G01*
X1463547Y-3291078D01*
X1479295Y-3275584D01*
X1479295Y-3384550D01*
X1581150Y-3311905D02*
G01*
X1575815Y-3327400D01*
X1565402Y-3337813D01*
X1549907Y-3343147D01*
X1544573Y-3343147D01*
X1529079Y-3337813D01*
X1518665Y-3327400D01*
X1513586Y-3311905D01*
X1513586Y-3306826D01*
X1518665Y-3291078D01*
X1529079Y-3280663D01*
X1544573Y-3275584D01*
X1549907Y-3275584D01*
X1565402Y-3280663D01*
X1575815Y-3291078D01*
X1581150Y-3311905D01*
X1581150Y-3337813D01*
X1575815Y-3363976D01*
X1565402Y-3379470D01*
X1549907Y-3384550D01*
X1539494Y-3384550D01*
X1524000Y-3379470D01*
X1518665Y-3369055D01*
X773684Y-3403600D02*
G01*
X851662Y-3403600D01*
X867155Y-3398520D01*
X877570Y-3388105D01*
X882650Y-3372357D01*
X882650Y-3361944D01*
X877570Y-3346450D01*
X867155Y-3336036D01*
X851662Y-3330955D01*
X773684Y-3330955D01*
X799592Y-3291331D02*
G01*
X794512Y-3291331D01*
X784097Y-3286252D01*
X778763Y-3280918D01*
X773684Y-3270504D01*
X773684Y-3249929D01*
X778763Y-3239515D01*
X784097Y-3234181D01*
X794512Y-3229102D01*
X804926Y-3229102D01*
X815339Y-3234181D01*
X830834Y-3244595D01*
X882650Y-3296665D01*
X882650Y-3223768D01*
X773684Y-3158489D02*
G01*
X778763Y-3173984D01*
X794512Y-3184397D01*
X820420Y-3189478D01*
X835913Y-3189478D01*
X862076Y-3184397D01*
X877570Y-3173984D01*
X882650Y-3158489D01*
X882650Y-3148076D01*
X877570Y-3132328D01*
X862076Y-3121913D01*
X835913Y-3116834D01*
X820420Y-3116834D01*
X794512Y-3121913D01*
X778763Y-3132328D01*
X773684Y-3148076D01*
X773684Y-3158489D01*
X2997200Y-3326384D02*
G01*
X2997200Y-3404362D01*
X3002279Y-3419855D01*
X3012693Y-3430270D01*
X3028441Y-3435350D01*
X3038856Y-3435350D01*
X3054350Y-3430270D01*
X3064763Y-3419855D01*
X3069843Y-3404362D01*
X3069843Y-3326384D01*
X3109468Y-3352292D02*
G01*
X3109468Y-3347212D01*
X3114547Y-3336797D01*
X3119881Y-3331463D01*
X3130295Y-3326384D01*
X3150870Y-3326384D01*
X3161284Y-3331463D01*
X3166618Y-3336797D01*
X3171697Y-3347212D01*
X3171697Y-3357626D01*
X3166618Y-3368039D01*
X3156204Y-3383534D01*
X3104134Y-3435350D01*
X3177031Y-3435350D01*
X3211322Y-3347212D02*
G01*
X3221736Y-3341878D01*
X3237229Y-3326384D01*
X3237229Y-3435350D01*
X2844800Y-1484884D02*
G01*
X2844800Y-1562862D01*
X2849879Y-1578355D01*
X2860293Y-1588770D01*
X2876041Y-1593850D01*
X2886456Y-1593850D01*
X2901950Y-1588770D01*
X2912363Y-1578355D01*
X2917443Y-1562862D01*
X2917443Y-1484884D01*
X2957068Y-1510792D02*
G01*
X2957068Y-1505712D01*
X2962147Y-1495297D01*
X2967481Y-1489963D01*
X2977895Y-1484884D01*
X2998470Y-1484884D01*
X3008884Y-1489963D01*
X3014218Y-1495297D01*
X3019297Y-1505712D01*
X3019297Y-1516126D01*
X3014218Y-1526539D01*
X3003804Y-1542034D01*
X2951734Y-1593850D01*
X3024631Y-1593850D01*
X3064002Y-1510792D02*
G01*
X3064002Y-1505712D01*
X3069336Y-1495297D01*
X3074415Y-1489963D01*
X3084829Y-1484884D01*
X3105658Y-1484884D01*
X3116072Y-1489963D01*
X3121152Y-1495297D01*
X3126486Y-1505712D01*
X3126486Y-1516126D01*
X3121152Y-1526539D01*
X3110738Y-1542034D01*
X3058922Y-1593850D01*
X3131565Y-1593850D01*
X1418132Y-1816341D02*
G01*
X1496110Y-1816341D01*
X1511604Y-1811261D01*
X1522018Y-1800847D01*
X1527098Y-1785099D01*
X1527098Y-1774685D01*
X1522018Y-1759191D01*
X1511604Y-1748777D01*
X1496110Y-1743697D01*
X1418132Y-1743697D01*
X1438960Y-1709407D02*
G01*
X1433626Y-1698993D01*
X1418132Y-1683245D01*
X1527098Y-1683245D01*
X1438960Y-1648955D02*
G01*
X1433626Y-1638541D01*
X1418132Y-1623047D01*
X1527098Y-1623047D01*
X5232400Y-201688D02*
G01*
X5232400Y-279666D01*
X5237479Y-295160D01*
X5247893Y-305574D01*
X5263641Y-310654D01*
X5274056Y-310654D01*
X5289550Y-305574D01*
X5299963Y-295160D01*
X5305043Y-279666D01*
X5305043Y-201688D01*
X5339334Y-222516D02*
G01*
X5349747Y-217182D01*
X5365495Y-201688D01*
X5365495Y-310654D01*
X5404865Y-227596D02*
G01*
X5404865Y-222516D01*
X5410200Y-212102D01*
X5415279Y-206768D01*
X5425693Y-201688D01*
X5446522Y-201688D01*
X5456936Y-206768D01*
X5462015Y-212102D01*
X5467350Y-222516D01*
X5467350Y-232930D01*
X5462015Y-243344D01*
X5451602Y-258838D01*
X5399786Y-310654D01*
X5472429Y-310654D01*
X3812989Y-862495D02*
G01*
X3812989Y-940473D01*
X3818069Y-955967D01*
X3828483Y-966381D01*
X3844231Y-971461D01*
X3854645Y-971461D01*
X3870139Y-966381D01*
X3880553Y-955967D01*
X3885633Y-940473D01*
X3885633Y-862495D01*
X3919923Y-883323D02*
G01*
X3930337Y-877989D01*
X3946085Y-862495D01*
X3946085Y-971461D01*
X3990789Y-862495D02*
G01*
X4047939Y-862495D01*
X4016697Y-904151D01*
X4032191Y-904151D01*
X4042605Y-909231D01*
X4047939Y-914311D01*
X4053019Y-930059D01*
X4053019Y-940473D01*
X4047939Y-955967D01*
X4037525Y-966381D01*
X4021777Y-971461D01*
X4006283Y-971461D01*
X3990789Y-966381D01*
X3985455Y-961301D01*
X3980375Y-950887D01*
X3448011Y-3180308D02*
G01*
X3448011Y-3258286D01*
X3453091Y-3273780D01*
X3463505Y-3284194D01*
X3479253Y-3289274D01*
X3489667Y-3289274D01*
X3505161Y-3284194D01*
X3515575Y-3273780D01*
X3520655Y-3258286D01*
X3520655Y-3180308D01*
X3554945Y-3201136D02*
G01*
X3565359Y-3195802D01*
X3581107Y-3180308D01*
X3581107Y-3289274D01*
X3667213Y-3180308D02*
G01*
X3615397Y-3252952D01*
X3693121Y-3252952D01*
X3667213Y-3180308D02*
G01*
X3667213Y-3289274D01*
X1421384Y-2349500D02*
G01*
X1499362Y-2349500D01*
X1514855Y-2344420D01*
X1525270Y-2334005D01*
X1530350Y-2318257D01*
X1530350Y-2307844D01*
X1525270Y-2292350D01*
X1514855Y-2281936D01*
X1499362Y-2276855D01*
X1421384Y-2276855D01*
X1442212Y-2242565D02*
G01*
X1436878Y-2232152D01*
X1421384Y-2216404D01*
X1530350Y-2216404D01*
X1436878Y-2119884D02*
G01*
X1426463Y-2124963D01*
X1421384Y-2140712D01*
X1421384Y-2151126D01*
X1426463Y-2166620D01*
X1442212Y-2177034D01*
X1468120Y-2182113D01*
X1494028Y-2182113D01*
X1514855Y-2177034D01*
X1525270Y-2166620D01*
X1530350Y-2151126D01*
X1530350Y-2145792D01*
X1525270Y-2130297D01*
X1514855Y-2119884D01*
X1499362Y-2114550D01*
X1494028Y-2114550D01*
X1478534Y-2119884D01*
X1468120Y-2130297D01*
X1463039Y-2145792D01*
X1463039Y-2151126D01*
X1468120Y-2166620D01*
X1478534Y-2177034D01*
X1494028Y-2182113D01*
X3493515Y-1257300D02*
G01*
X3415538Y-1257300D01*
X3400043Y-1262379D01*
X3389629Y-1272794D01*
X3384550Y-1288542D01*
X3384550Y-1298955D01*
X3389629Y-1314450D01*
X3400043Y-1324863D01*
X3415538Y-1329944D01*
X3493515Y-1329944D01*
X3472688Y-1364234D02*
G01*
X3478022Y-1374647D01*
X3493515Y-1390395D01*
X3384550Y-1390395D01*
X3493515Y-1497329D02*
G01*
X3384550Y-1445260D01*
X3493515Y-1424686D02*
G01*
X3493515Y-1497329D01*
X2988104Y-1869475D02*
G01*
X2988104Y-1947453D01*
X2993184Y-1962947D01*
X3003598Y-1973361D01*
X3019346Y-1978441D01*
X3029760Y-1978441D01*
X3045254Y-1973361D01*
X3055668Y-1962947D01*
X3060748Y-1947453D01*
X3060748Y-1869475D01*
X3100372Y-1895383D02*
G01*
X3100372Y-1890303D01*
X3105452Y-1879889D01*
X3110786Y-1874555D01*
X3121200Y-1869475D01*
X3141774Y-1869475D01*
X3152188Y-1874555D01*
X3157522Y-1879889D01*
X3162602Y-1890303D01*
X3162602Y-1900717D01*
X3157522Y-1911131D01*
X3147108Y-1926625D01*
X3095038Y-1978441D01*
X3167936Y-1978441D01*
X3212640Y-1869475D02*
G01*
X3269790Y-1869475D01*
X3238548Y-1911131D01*
X3254042Y-1911131D01*
X3264456Y-1916211D01*
X3269790Y-1921291D01*
X3274870Y-1937039D01*
X3274870Y-1947453D01*
X3269790Y-1962947D01*
X3259376Y-1973361D01*
X3243628Y-1978441D01*
X3228134Y-1978441D01*
X3212640Y-1973361D01*
X3207306Y-1968281D01*
X3202226Y-1957867D01*
X1347210Y-1765300D02*
G01*
X1269232Y-1765300D01*
X1253738Y-1770379D01*
X1243324Y-1780794D01*
X1238244Y-1796542D01*
X1238244Y-1806955D01*
X1243324Y-1822450D01*
X1253738Y-1832863D01*
X1269232Y-1837944D01*
X1347210Y-1837944D01*
X1321302Y-1877568D02*
G01*
X1326382Y-1877568D01*
X1336796Y-1882647D01*
X1342130Y-1887981D01*
X1347210Y-1898395D01*
X1347210Y-1918970D01*
X1342130Y-1929384D01*
X1336796Y-1934718D01*
X1326382Y-1939797D01*
X1315968Y-1939797D01*
X1305554Y-1934718D01*
X1290060Y-1924304D01*
X1238244Y-1872234D01*
X1238244Y-1945131D01*
X1347210Y-2031237D02*
G01*
X1274566Y-1979421D01*
X1274566Y-2057400D01*
X1347210Y-2031237D02*
G01*
X1238244Y-2031237D01*
G36*
X1579422Y-2831846D02*
G01*
X1579422Y-2863850D01*
X1609902Y-2863850D01*
X1609902Y-2831846D01*
G37*
G36*
X1579422Y-2673350D02*
G01*
X1579422Y-2705354D01*
X1609902Y-2705354D01*
X1609902Y-2673350D01*
G37*
G36*
X1656892Y-2680614D02*
G01*
X1656892Y-2855823D01*
X1685899Y-2855823D01*
X1685899Y-2680614D01*
G37*
G36*
X2234946Y-2619197D02*
G01*
X2234946Y-2649677D01*
X2266950Y-2649677D01*
X2266950Y-2619197D01*
G37*
G36*
X2076450Y-2619197D02*
G01*
X2076450Y-2649677D01*
X2108454Y-2649677D01*
X2108454Y-2619197D01*
G37*
G36*
X2083714Y-2543200D02*
G01*
X2083714Y-2572207D01*
X2258923Y-2572207D01*
X2258923Y-2543200D01*
G37*
G36*
X1295400Y-219100D02*
G01*
X1295400Y-304800D01*
X1358900Y-304800D01*
X1358900Y-219100D01*
G37*
G36*
X1295400Y-774700D02*
G01*
X1295400Y-863600D01*
X1298600Y-860399D01*
X1358900Y-860399D01*
X1358900Y-774700D01*
G37*
G36*
X4532376Y-1031036D02*
G01*
X4525772Y-1031443D01*
X4519269Y-1032713D01*
X4512919Y-1034745D01*
X4506925Y-1037590D01*
X4501337Y-1041146D01*
X4496206Y-1045362D01*
X4491685Y-1050188D01*
X4487773Y-1055573D01*
X4484573Y-1061415D01*
X4482134Y-1067562D01*
X4480458Y-1074013D01*
X4479645Y-1080566D01*
X4479645Y-1087221D01*
X4480458Y-1093825D01*
X4482134Y-1100226D01*
X4484573Y-1106424D01*
X4487773Y-1112215D01*
X4491685Y-1117600D01*
X4496206Y-1122426D01*
X4501337Y-1126642D01*
X4506925Y-1130198D01*
X4512919Y-1133043D01*
X4519269Y-1135075D01*
X4525772Y-1136345D01*
X4532376Y-1136751D01*
X4539030Y-1136345D01*
X4545533Y-1135075D01*
X4551883Y-1133043D01*
X4557877Y-1130198D01*
X4563465Y-1126642D01*
X4568596Y-1122426D01*
X4573117Y-1117600D01*
X4577029Y-1112215D01*
X4580229Y-1106424D01*
X4582668Y-1100226D01*
X4584344Y-1093825D01*
X4585157Y-1087221D01*
X4585157Y-1080566D01*
X4584344Y-1074013D01*
X4582668Y-1067562D01*
X4580229Y-1061415D01*
X4577029Y-1055573D01*
X4573117Y-1050188D01*
X4568596Y-1045362D01*
X4563465Y-1041146D01*
X4557877Y-1037590D01*
X4551883Y-1034745D01*
X4545533Y-1032713D01*
X4539030Y-1031443D01*
G37*
G36*
X3491534Y-3576218D02*
G01*
X3487724Y-3576828D01*
X3485896Y-3577437D01*
X3482492Y-3579266D01*
X3479596Y-3581806D01*
X3477260Y-3584905D01*
X3475685Y-3588410D01*
X3474872Y-3592169D01*
X3474872Y-3596030D01*
X3475685Y-3599789D01*
X3477260Y-3603294D01*
X3479596Y-3606393D01*
X3482492Y-3608933D01*
X3485896Y-3610762D01*
X3489604Y-3611778D01*
X3493465Y-3611981D01*
X3497275Y-3611372D01*
X3499104Y-3610762D01*
X3502507Y-3608933D01*
X3505403Y-3606393D01*
X3507740Y-3603294D01*
X3508654Y-3601618D01*
X3509822Y-3597960D01*
X3510178Y-3594100D01*
X3509822Y-3590239D01*
X3508654Y-3586581D01*
X3506673Y-3583279D01*
X3504031Y-3580434D01*
X3500831Y-3578301D01*
X3499104Y-3577437D01*
X3495395Y-3576421D01*
G37*
X816119Y-2995739D02*
G01*
X675119Y-2995739D01*
X675119Y-3176460D02*
G01*
X816119Y-3176460D01*
X831359Y-3161220D02*
G01*
X831359Y-3010979D01*
X453880Y-2995739D02*
G01*
X594880Y-2995739D01*
X594880Y-3176460D02*
G01*
X453880Y-3176460D01*
X438640Y-3161220D02*
G01*
X438640Y-3010979D01*
X2048019Y-3351339D02*
G01*
X1907019Y-3351339D01*
X1907019Y-3532060D02*
G01*
X2048019Y-3532060D01*
X2063259Y-3516820D02*
G01*
X2063259Y-3366579D01*
X1685780Y-3351339D02*
G01*
X1826780Y-3351339D01*
X1826780Y-3532060D02*
G01*
X1685780Y-3532060D01*
X1670540Y-3516820D02*
G01*
X1670540Y-3366579D01*
X1425719Y-2995739D02*
G01*
X1284719Y-2995739D01*
X1284719Y-3176460D02*
G01*
X1425719Y-3176460D01*
X1440959Y-3161220D02*
G01*
X1440959Y-3010979D01*
X1063480Y-2995739D02*
G01*
X1204480Y-2995739D01*
X1204480Y-3176460D02*
G01*
X1063480Y-3176460D01*
X1048240Y-3161220D02*
G01*
X1048240Y-3010979D01*
X3336780Y-2363660D02*
G01*
X3477780Y-2363660D01*
X3477780Y-2182939D02*
G01*
X3336780Y-2182939D01*
X3321540Y-2198179D02*
G01*
X3321540Y-2348420D01*
X3699019Y-2363660D02*
G01*
X3558019Y-2363660D01*
X3558019Y-2182939D02*
G01*
X3699019Y-2182939D01*
X3714259Y-2198179D02*
G01*
X3714259Y-2348420D01*
X3146280Y-3125660D02*
G01*
X3287280Y-3125660D01*
X3287280Y-2944939D02*
G01*
X3146280Y-2944939D01*
X3131040Y-2960179D02*
G01*
X3131040Y-3110420D01*
X3508519Y-3125660D02*
G01*
X3367519Y-3125660D01*
X3367519Y-2944939D02*
G01*
X3508519Y-2944939D01*
X3523759Y-2960179D02*
G01*
X3523759Y-3110420D01*
X3349480Y-2731960D02*
G01*
X3490480Y-2731960D01*
X3490480Y-2551239D02*
G01*
X3349480Y-2551239D01*
X3334240Y-2566479D02*
G01*
X3334240Y-2716720D01*
X3711719Y-2731960D02*
G01*
X3570719Y-2731960D01*
X3570719Y-2551239D02*
G01*
X3711719Y-2551239D01*
X3726959Y-2566479D02*
G01*
X3726959Y-2716720D01*
D11*
X2499281Y-3144357D02*
G01*
X2419283Y-3144357D01*
X2555326Y-3144403D02*
G01*
X2635323Y-3144403D01*
X2499281Y-3002389D02*
G01*
X2419283Y-3002389D01*
X2555326Y-3002437D02*
G01*
X2635323Y-3002437D01*
X2388308Y-3113374D02*
G01*
X2388308Y-3033369D01*
X2666301Y-3033422D02*
G01*
X2666301Y-3113425D01*
D10*
X1877522Y-2680977D02*
G01*
X1877400Y-2695100D01*
X1877522Y-2856222D02*
G01*
X1877400Y-2842099D01*
X1602277Y-2680977D02*
G01*
X1877522Y-2680977D01*
X1602277Y-2856222D02*
G01*
X1877522Y-2856222D01*
X2084077Y-2351577D02*
G01*
X2098200Y-2351699D01*
X2259322Y-2351577D02*
G01*
X2245199Y-2351699D01*
X2084077Y-2626822D02*
G01*
X2084077Y-2351577D01*
X2259322Y-2626822D02*
G01*
X2259322Y-2351577D01*
D12*
X4127500Y-2070100D02*
G01*
X4127500Y-1562100D01*
X3365500Y-1562100D01*
X3365500Y-2070100D01*
X4127500Y-2070100D01*
X3640658Y-2070100D01*
D11*
X693928Y-161544D02*
G01*
X673100Y-161544D01*
X673100Y-355600D01*
X622300Y-406400D01*
X444500Y-406400D01*
X393700Y-355600D01*
X393700Y-161544D01*
X1201928Y-161544D02*
G01*
X1181100Y-161544D01*
X1181100Y-355600D01*
X1130300Y-406400D01*
X952500Y-406400D01*
X901700Y-355600D01*
X901700Y-161544D01*
X1295400Y-768456D02*
G01*
X279400Y-768456D01*
X1295400Y-304800D02*
G01*
X1358900Y-304800D01*
X1358900Y-219118D01*
X1295400Y-219118D01*
X1295400Y-860381D02*
G01*
X1358900Y-860381D01*
X1358900Y-774700D01*
X1295400Y-774700D01*
X1295400Y-161503D02*
G01*
X279400Y-161503D01*
X279400Y-981496D02*
G01*
X279400Y-161503D01*
X1295400Y-981496D02*
G01*
X1295400Y-161503D01*
X1295400Y-981496D02*
G01*
X279400Y-981496D01*
X1869490Y-276796D02*
G01*
X1869490Y-586778D01*
X1559509Y-586778D02*
G01*
X1559509Y-276796D01*
X2461209Y-586803D02*
G01*
X2461209Y-276821D01*
X2771190Y-276821D02*
G01*
X2771190Y-586803D01*
D10*
X2098278Y-1002360D02*
G01*
X2026475Y-1002360D01*
X2026475Y-902639D01*
X2098278Y-902639D01*
X2143521Y-1002360D02*
G01*
X2215324Y-1002360D01*
X2215324Y-902639D01*
X2143521Y-902639D01*
X1296339Y-1221978D02*
G01*
X1296339Y-1150175D01*
X1396060Y-1150175D01*
X1396060Y-1221978D01*
X1296339Y-1267221D02*
G01*
X1296339Y-1339024D01*
X1396060Y-1339024D01*
X1396060Y-1267221D01*
X2896539Y-510778D02*
G01*
X2896539Y-438975D01*
X2996260Y-438975D01*
X2996260Y-510778D01*
X2896539Y-556021D02*
G01*
X2896539Y-627824D01*
X2996260Y-627824D01*
X2996260Y-556021D01*
D13*
X482605Y-3429005D02*
G01*
X482605Y-3529004D01*
X660405Y-3429005D02*
G01*
X660405Y-3529004D01*
X482594Y-2603505D02*
G01*
X382595Y-2603505D01*
X482594Y-2781305D02*
G01*
X382595Y-2781305D01*
D11*
X2031994Y-455711D02*
G01*
X2031994Y-509478D01*
X2235194Y-455711D02*
G01*
X2235194Y-509478D01*
D10*
X1620380Y-1262839D02*
G01*
X1620380Y-1048560D01*
X1935619Y-1048560D01*
X1935619Y-1262839D01*
X1620380Y-1262839D01*
X3106280Y-615139D02*
G01*
X3106280Y-400860D01*
X3421519Y-400860D01*
X3421519Y-615139D01*
X3106280Y-615139D01*
X3090219Y-2754632D02*
G01*
X2954980Y-2754632D01*
X3090219Y-2579392D02*
G01*
X2954980Y-2579392D01*
X2954980Y-2687772D02*
G01*
X2954980Y-2646253D01*
X816579Y-2501679D02*
G01*
X986820Y-2501679D01*
X816579Y-2806920D02*
G01*
X986820Y-2806920D01*
X986820Y-2701940D02*
G01*
X986820Y-2606659D01*
X2484678Y-3235939D02*
G01*
X2388791Y-3235939D01*
X2388791Y-3368060D01*
X2484678Y-3368060D01*
X2569921Y-3235939D02*
G01*
X2665808Y-3235939D01*
X2665808Y-3368060D01*
X2569921Y-3368060D01*
X2557221Y-3609360D02*
G01*
X2653108Y-3609360D01*
X2653108Y-3477239D01*
X2557221Y-3477239D01*
X2471978Y-3609360D02*
G01*
X2376091Y-3609360D01*
X2376091Y-3477239D01*
X2471978Y-3477239D01*
X3903421Y-662960D02*
G01*
X3999308Y-662960D01*
X3999308Y-530839D01*
X3903421Y-530839D01*
X3818178Y-662960D02*
G01*
X3722291Y-662960D01*
X3722291Y-530839D01*
X3818178Y-530839D01*
X1884121Y-3164860D02*
G01*
X1980008Y-3164860D01*
X1980008Y-3032739D01*
X1884121Y-3032739D01*
X1798878Y-3164860D02*
G01*
X1702991Y-3164860D01*
X1702991Y-3032739D01*
X1798878Y-3032739D01*
X1388821Y-3558560D02*
G01*
X1484708Y-3558560D01*
X1484708Y-3426439D01*
X1388821Y-3426439D01*
X1303578Y-3558560D02*
G01*
X1207691Y-3558560D01*
X1207691Y-3426439D01*
X1303578Y-3426439D01*
X1056660Y-3360978D02*
G01*
X1056660Y-3265091D01*
X924539Y-3265091D01*
X924539Y-3360978D01*
X1056660Y-3446221D02*
G01*
X1056660Y-3542108D01*
X924539Y-3542108D01*
X924539Y-3446221D01*
X2963621Y-3609360D02*
G01*
X3059508Y-3609360D01*
X3059508Y-3477239D01*
X2963621Y-3477239D01*
X2878378Y-3609360D02*
G01*
X2782491Y-3609360D01*
X2782491Y-3477239D01*
X2878378Y-3477239D01*
X2954578Y-1623039D02*
G01*
X2858691Y-1623039D01*
X2858691Y-1755160D01*
X2954578Y-1755160D01*
X3039821Y-1623039D02*
G01*
X3135708Y-1623039D01*
X3135708Y-1755160D01*
X3039821Y-1755160D01*
D14*
X1713247Y-1948548D02*
G01*
X1713247Y-1638541D01*
X2023254Y-1638541D02*
G01*
X1713247Y-1638541D01*
X2023127Y-1948548D02*
G01*
X2023127Y-1638541D01*
X1713247Y-1950961D02*
G01*
X1797067Y-1950961D01*
X1939307Y-1950961D02*
G01*
X2023127Y-1950961D01*
D11*
X5962116Y-958364D02*
G01*
X5962116Y-469905D01*
X5738596Y-469905D01*
X5758916Y-958364D02*
G01*
X5758916Y-469905D01*
X5473700Y-469905D01*
X5473700Y-685805D01*
X5219700Y-685805D01*
X5219700Y-469905D01*
X4965700Y-469905D01*
X4965700Y-685805D01*
X4737100Y-685805D01*
X4737100Y-469905D01*
X4508500Y-469905D01*
X4508500Y-838205D01*
X4332399Y-958364D02*
G01*
X6134100Y-958364D01*
X6134100Y-1036289D02*
G01*
X6134100Y-355605D01*
X5999015Y-2908305D02*
G01*
X6134100Y-2908305D01*
X6134100Y-2823519D01*
X4332399Y-2823519D02*
G01*
X4332399Y-2908305D01*
X4465784Y-2908305D01*
X4332399Y-354403D02*
G01*
X4332399Y-1036289D01*
X6132400Y-354403D02*
G01*
X4332399Y-354403D01*
X3727450Y-1308097D02*
G01*
X3867147Y-1308102D01*
X3755054Y-1016002D02*
G01*
X3839532Y-1016002D01*
X3708397Y-1193797D02*
G01*
X3708397Y-1117602D01*
D15*
X3544397Y-3632911D02*
G01*
X3544397Y-3647506D01*
X3544397Y-3537912D02*
G01*
X3544397Y-3542080D01*
X3544397Y-3442919D02*
G01*
X3544397Y-3447084D01*
X3544397Y-3337504D02*
G01*
X3544397Y-3352088D01*
X3364395Y-3632911D02*
G01*
X3364395Y-3647506D01*
X3364395Y-3442919D02*
G01*
X3364395Y-3542083D01*
X3364395Y-3337504D02*
G01*
X3364395Y-3352091D01*
X3364395Y-3337504D02*
G01*
X3544397Y-3337504D01*
X3364395Y-3647506D02*
G01*
X3544397Y-3647506D01*
X1689900Y-2424099D02*
G01*
X1788899Y-2424099D01*
X1788899Y-2224100D01*
X1690900Y-2224100D01*
X1689900Y-2225100D01*
X1689900Y-2424099D01*
X3224999Y-1182700D02*
G01*
X3126000Y-1182700D01*
X3126000Y-1382699D01*
X3223999Y-1382699D01*
X3224999Y-1381699D01*
X3224999Y-1182700D01*
D14*
X2941505Y-2033592D02*
G01*
X3104504Y-2033592D01*
X2942600Y-2335400D02*
G01*
X3104598Y-2335400D01*
X3104504Y-2137318D02*
G01*
X3104504Y-2231481D01*
D10*
X673356Y-1350578D02*
G01*
X977638Y-1350578D01*
X977638Y-2230821D01*
X673356Y-2230821D01*
X673356Y-1350578D01*
G75*
G01*
X816120Y-3176460D02*
G03*
X831360Y-3161220I0J15240D01*
G75*
G01*
X831360Y-3010980D02*
G03*
X816120Y-2995740I-15240J0D01*
G75*
G01*
X453880Y-3176460D02*
G02*
X438640Y-3161220I0J15240D01*
G75*
G01*
X438640Y-3010980D02*
G02*
X453880Y-2995740I15240J0D01*
G75*
G01*
X2048020Y-3532060D02*
G03*
X2063260Y-3516820I0J15240D01*
G75*
G01*
X2063260Y-3366580D02*
G03*
X2048020Y-3351340I-15240J0D01*
G75*
G01*
X1685780Y-3532060D02*
G02*
X1670540Y-3516820I0J15240D01*
G75*
G01*
X1670540Y-3366580D02*
G02*
X1685780Y-3351340I15240J0D01*
G75*
G01*
X1425720Y-3176460D02*
G03*
X1440960Y-3161220I0J15240D01*
G75*
G01*
X1440960Y-3010980D02*
G03*
X1425720Y-2995740I-15240J0D01*
G75*
G01*
X1063480Y-3176460D02*
G02*
X1048240Y-3161220I0J15240D01*
G75*
G01*
X1048240Y-3010980D02*
G02*
X1063480Y-2995740I15240J0D01*
G75*
G01*
X3336780Y-2182940D02*
G03*
X3321540Y-2198180I0J-15240D01*
G75*
G01*
X3321540Y-2348420D02*
G03*
X3336780Y-2363660I15240J0D01*
G75*
G01*
X3699020Y-2182940D02*
G02*
X3714260Y-2198180I0J-15240D01*
G75*
G01*
X3714260Y-2348420D02*
G02*
X3699020Y-2363660I-15240J0D01*
G75*
G01*
X3146280Y-2944940D02*
G03*
X3131040Y-2960180I0J-15240D01*
G75*
G01*
X3131040Y-3110420D02*
G03*
X3146280Y-3125660I15240J0D01*
G75*
G01*
X3508520Y-2944940D02*
G02*
X3523760Y-2960180I0J-15240D01*
G75*
G01*
X3523760Y-3110420D02*
G02*
X3508520Y-3125660I-15240J0D01*
G75*
G01*
X3349480Y-2551240D02*
G03*
X3334240Y-2566480I0J-15240D01*
G75*
G01*
X3334240Y-2716720D02*
G03*
X3349480Y-2731960I15240J0D01*
G75*
G01*
X3711720Y-2551240D02*
G02*
X3726960Y-2566480I0J-15240D01*
G75*
G01*
X3726960Y-2716720D02*
G02*
X3711720Y-2731960I-15240J0D01*
D11*
G75*
G01*
X2635319Y-3002437D02*
G02*
X2666301Y-3033423I0J-30983D01*
G75*
G01*
X2666301Y-3113420D02*
G02*
X2635319Y-3144403I-30982J0D01*
G75*
G01*
X2419289Y-3144357D02*
G02*
X2388309Y-3113375I3J30982D01*
G75*
G01*
X2388309Y-3033377D02*
G02*
X2419289Y-3002389I30983J5D01*
D14*
G75*
G01*
X1799608Y-1950961D02*
G02*
X1939308Y-1950961I69850J-21730D01*
D11*
G75*
G01
X1571193Y-631825D02*
G03X1571193Y-631825I-12700J0D01*
G75*
G01
X2784907Y-231800D02*
G03X2784907Y-231800I-12700J0D01*
D15*
G75*
G01
X646506Y-3414801D02*
G03X646506Y-3414801I-5004J0D01*
G75*
G01
X501828Y-2762402D02*
G03X501828Y-2762402I-5004J0D01*
D16*
G75*
G01
X1695501Y-1187602D02*
G03X1695501Y-1187602I-15011J0D01*
G75*
G01
X1632077Y-1368806D02*
G03X1632077Y-1368806I-15011J0D01*
G75*
G01
X3181401Y-539902D02*
G03X3181401Y-539902I-15011J0D01*
G75*
G01
X3117977Y-721106D02*
G03X3117977Y-721106I-15011J0D01*
D14*
G75*
G01
X3131693Y-2768625D02*
G03X3131693Y-2768625I-7493J0D01*
D16*
G75*
G01
X802411Y-2489200D02*
G03X802411Y-2489200I-15011J0D01*
D13*
G75*
G01
X2075028Y-1943100D02*
G03X2075028Y-1943100I-10008J0D01*
D16*
G75*
G01
X4013302Y-1251737D02*
G03X4013302Y-1251737I-15011J0D01*
D15*
G75*
G01
X1835912Y-2431110D02*
G03X1835912Y-2431110I-5004J0D01*
G75*
G01
X1770913Y-2402103D02*
G03X1770913Y-2402103I-5004J0D01*
G75*
G01
X3088996Y-1175690D02*
G03X3088996Y-1175690I-5004J0D01*
G75*
G01
X3153994Y-1204697D02*
G03X3153994Y-1204697I-5004J0D01*
D16*
G75*
G01
X763600Y-1409700D02*
G03X763600Y-1409700I-15011J0D01*
G75*
G01
X563601Y-1335761D02*
G03X563601Y-1335761I-15011J0D01*
M02*
