G04 Layer: BottomSilkscreenLayer*
G04 EasyEDA v6.5.46, 2025-04-11 15:52:01*
G04 898f7cb4de8248389c9d67f31726504a,899b5eb0d7ee4baeb7bb73a579ea36e5,10*
G04 Gerber Generator version 0.2*
G04 Scale: 100 percent, Rotated: No, Reflected: No *
G04 Dimensions in millimeters *
G04 leading zeros omitted , absolute positions ,4 integer and 5 decimal *
%FSLAX45Y45*%
%MOMM*%

%ADD10C,0.1524*%
%ADD11C,0.1500*%
%ADD12C,0.2540*%

%LPD*%
D10*
X1460500Y-3061715D02*
G01*
X1460500Y-2983737D01*
X1465579Y-2968244D01*
X1475994Y-2957829D01*
X1491742Y-2952750D01*
X1502155Y-2952750D01*
X1517650Y-2957829D01*
X1528063Y-2968244D01*
X1533144Y-2983737D01*
X1533144Y-3061715D01*
X1567434Y-3040887D02*
G01*
X1577847Y-3046221D01*
X1593595Y-3061715D01*
X1593595Y-2952750D01*
D11*
X533400Y-2047999D02*
G01*
X542544Y-2052571D01*
X556005Y-2066287D01*
X556005Y-1970783D01*
X622554Y-2066287D02*
G01*
X586231Y-1970783D01*
X622554Y-2066287D02*
G01*
X658876Y-1970783D01*
X599694Y-2002533D02*
G01*
X645160Y-2002533D01*
X758952Y-2066287D02*
G01*
X758952Y-1970783D01*
X758952Y-1970783D02*
G01*
X813307Y-1970783D01*
X843279Y-2066287D02*
G01*
X847852Y-2061715D01*
X852423Y-2066287D01*
X847852Y-2070859D01*
X843279Y-2066287D01*
X847852Y-2034283D02*
G01*
X847852Y-1970783D01*
X882395Y-2011677D02*
G01*
X964184Y-2011677D01*
X994410Y-2066287D02*
G01*
X998728Y-2061715D01*
X1003300Y-2066287D01*
X998728Y-2070859D01*
X994410Y-2066287D01*
X998728Y-2034283D02*
G01*
X998728Y-1970783D01*
X1056131Y-2034283D02*
G01*
X1046987Y-2029965D01*
X1037844Y-2020821D01*
X1033526Y-2007105D01*
X1033526Y-1997961D01*
X1037844Y-1984499D01*
X1046987Y-1975355D01*
X1056131Y-1970783D01*
X1069847Y-1970783D01*
X1078737Y-1975355D01*
X1087881Y-1984499D01*
X1092454Y-1997961D01*
X1092454Y-2007105D01*
X1087881Y-2020821D01*
X1078737Y-2029965D01*
X1069847Y-2034283D01*
X1056131Y-2034283D01*
X1122426Y-2034283D02*
G01*
X1122426Y-1970783D01*
X1122426Y-2016249D02*
G01*
X1136142Y-2029965D01*
X1145286Y-2034283D01*
X1158747Y-2034283D01*
X1167892Y-2029965D01*
X1172463Y-2016249D01*
X1172463Y-1970783D01*
X1272539Y-2047999D02*
G01*
X1281684Y-2052571D01*
X1295145Y-2066287D01*
X1295145Y-1970783D01*
X1347978Y-2066287D02*
G01*
X1334262Y-2061715D01*
X1329689Y-2052571D01*
X1329689Y-2043427D01*
X1334262Y-2034283D01*
X1343405Y-2029965D01*
X1361694Y-2025393D01*
X1375155Y-2020821D01*
X1384300Y-2011677D01*
X1388871Y-2002533D01*
X1388871Y-1989071D01*
X1384300Y-1979927D01*
X1379728Y-1975355D01*
X1366012Y-1970783D01*
X1347978Y-1970783D01*
X1334262Y-1975355D01*
X1329689Y-1979927D01*
X1325118Y-1989071D01*
X1325118Y-2002533D01*
X1329689Y-2011677D01*
X1338834Y-2020821D01*
X1352550Y-2025393D01*
X1370584Y-2029965D01*
X1379728Y-2034283D01*
X1384300Y-2043427D01*
X1384300Y-2052571D01*
X1379728Y-2061715D01*
X1366012Y-2066287D01*
X1347978Y-2066287D01*
X1473454Y-2052571D02*
G01*
X1468881Y-2061715D01*
X1455165Y-2066287D01*
X1446021Y-2066287D01*
X1432560Y-2061715D01*
X1423415Y-2047999D01*
X1418844Y-2025393D01*
X1418844Y-2002533D01*
X1423415Y-1984499D01*
X1432560Y-1975355D01*
X1446021Y-1970783D01*
X1450594Y-1970783D01*
X1464310Y-1975355D01*
X1473454Y-1984499D01*
X1478026Y-1997961D01*
X1478026Y-2002533D01*
X1473454Y-2016249D01*
X1464310Y-2025393D01*
X1450594Y-2029965D01*
X1446021Y-2029965D01*
X1432560Y-2025393D01*
X1423415Y-2016249D01*
X1418844Y-2002533D01*
X1562607Y-2066287D02*
G01*
X1517142Y-2066287D01*
X1512570Y-2025393D01*
X1517142Y-2029965D01*
X1530604Y-2034283D01*
X1544320Y-2034283D01*
X1558036Y-2029965D01*
X1566926Y-2020821D01*
X1571497Y-2007105D01*
X1571497Y-1997961D01*
X1566926Y-1984499D01*
X1558036Y-1975355D01*
X1544320Y-1970783D01*
X1530604Y-1970783D01*
X1517142Y-1975355D01*
X1512570Y-1979927D01*
X1507997Y-1989071D01*
X1628902Y-2066287D02*
G01*
X1615186Y-2061715D01*
X1606042Y-2047999D01*
X1601470Y-2025393D01*
X1601470Y-2011677D01*
X1606042Y-1989071D01*
X1615186Y-1975355D01*
X1628902Y-1970783D01*
X1638045Y-1970783D01*
X1651507Y-1975355D01*
X1660652Y-1989071D01*
X1665223Y-2011677D01*
X1665223Y-2025393D01*
X1660652Y-2047999D01*
X1651507Y-2061715D01*
X1638045Y-2066287D01*
X1628902Y-2066287D01*
X1833371Y-2043427D02*
G01*
X1828800Y-2052571D01*
X1819655Y-2061715D01*
X1810765Y-2066287D01*
X1792478Y-2066287D01*
X1783334Y-2061715D01*
X1774189Y-2052571D01*
X1769871Y-2043427D01*
X1765300Y-2029965D01*
X1765300Y-2007105D01*
X1769871Y-1993389D01*
X1774189Y-1984499D01*
X1783334Y-1975355D01*
X1792478Y-1970783D01*
X1810765Y-1970783D01*
X1819655Y-1975355D01*
X1828800Y-1984499D01*
X1833371Y-1993389D01*
X1863344Y-2066287D02*
G01*
X1863344Y-1970783D01*
X1927097Y-2066287D02*
G01*
X1927097Y-1970783D01*
X1863344Y-2020821D02*
G01*
X1927097Y-2020821D01*
X1993391Y-2066287D02*
G01*
X1957070Y-1970783D01*
X1993391Y-2066287D02*
G01*
X2029713Y-1970783D01*
X1970786Y-2002533D02*
G01*
X2016252Y-2002533D01*
X2059686Y-2066287D02*
G01*
X2059686Y-1970783D01*
X2059686Y-2066287D02*
G01*
X2100579Y-2066287D01*
X2114295Y-2061715D01*
X2118868Y-2057143D01*
X2123440Y-2047999D01*
X2123440Y-2038855D01*
X2118868Y-2029965D01*
X2114295Y-2025393D01*
X2100579Y-2020821D01*
X2059686Y-2020821D01*
X2091690Y-2020821D02*
G01*
X2123440Y-1970783D01*
X2221484Y-2043427D02*
G01*
X2216911Y-2052571D01*
X2208022Y-2061715D01*
X2198877Y-2066287D01*
X2180590Y-2066287D01*
X2171700Y-2061715D01*
X2162556Y-2052571D01*
X2157984Y-2043427D01*
X2153411Y-2029965D01*
X2153411Y-2007105D01*
X2157984Y-1993389D01*
X2162556Y-1984499D01*
X2171700Y-1975355D01*
X2180590Y-1970783D01*
X2198877Y-1970783D01*
X2208022Y-1975355D01*
X2216911Y-1984499D01*
X2221484Y-1993389D01*
X2221484Y-2007105D01*
X2198877Y-2007105D02*
G01*
X2221484Y-2007105D01*
X2251456Y-2066287D02*
G01*
X2251456Y-1970783D01*
X2251456Y-2066287D02*
G01*
X2310638Y-2066287D01*
X2251456Y-2020821D02*
G01*
X2288031Y-2020821D01*
X2251456Y-1970783D02*
G01*
X2310638Y-1970783D01*
X2340609Y-2066287D02*
G01*
X2340609Y-1970783D01*
X2340609Y-2066287D02*
G01*
X2381504Y-2066287D01*
X2395220Y-2061715D01*
X2399791Y-2057143D01*
X2404363Y-2047999D01*
X2404363Y-2038855D01*
X2399791Y-2029965D01*
X2395220Y-2025393D01*
X2381504Y-2020821D01*
X2340609Y-2020821D01*
X2372613Y-2020821D02*
G01*
X2404363Y-1970783D01*
X1149350Y-2666997D02*
G01*
X1149350Y-2571493D01*
X1117600Y-2666997D02*
G01*
X1181354Y-2666997D01*
X1211326Y-2666997D02*
G01*
X1211326Y-2571493D01*
X1211326Y-2666997D02*
G01*
X1252220Y-2666997D01*
X1265681Y-2662425D01*
X1270254Y-2657853D01*
X1274826Y-2648709D01*
X1274826Y-2634993D01*
X1270254Y-2626103D01*
X1265681Y-2621531D01*
X1252220Y-2616959D01*
X1211326Y-2616959D01*
X1350263Y-2666997D02*
G01*
X1304797Y-2603243D01*
X1373123Y-2603243D01*
X1350263Y-2666997D02*
G01*
X1350263Y-2571493D01*
X1430273Y-2666997D02*
G01*
X1416812Y-2662425D01*
X1407668Y-2648709D01*
X1403095Y-2626103D01*
X1403095Y-2612387D01*
X1407668Y-2589781D01*
X1416812Y-2576065D01*
X1430273Y-2571493D01*
X1439418Y-2571493D01*
X1453134Y-2576065D01*
X1462023Y-2589781D01*
X1466595Y-2612387D01*
X1466595Y-2626103D01*
X1462023Y-2648709D01*
X1453134Y-2662425D01*
X1439418Y-2666997D01*
X1430273Y-2666997D01*
X1551178Y-2666997D02*
G01*
X1505712Y-2666997D01*
X1501139Y-2626103D01*
X1505712Y-2630675D01*
X1519428Y-2634993D01*
X1533144Y-2634993D01*
X1546605Y-2630675D01*
X1555750Y-2621531D01*
X1560321Y-2607815D01*
X1560321Y-2598671D01*
X1555750Y-2585209D01*
X1546605Y-2576065D01*
X1533144Y-2571493D01*
X1519428Y-2571493D01*
X1505712Y-2576065D01*
X1501139Y-2580637D01*
X1496568Y-2589781D01*
X1644904Y-2653281D02*
G01*
X1640331Y-2662425D01*
X1626615Y-2666997D01*
X1617726Y-2666997D01*
X1604010Y-2662425D01*
X1594865Y-2648709D01*
X1590294Y-2626103D01*
X1590294Y-2603243D01*
X1594865Y-2585209D01*
X1604010Y-2576065D01*
X1617726Y-2571493D01*
X1622044Y-2571493D01*
X1635760Y-2576065D01*
X1644904Y-2585209D01*
X1649476Y-2598671D01*
X1649476Y-2603243D01*
X1644904Y-2616959D01*
X1635760Y-2626103D01*
X1622044Y-2630675D01*
X1617726Y-2630675D01*
X1604010Y-2626103D01*
X1594865Y-2616959D01*
X1590294Y-2603243D01*
X486410Y-2806697D02*
G01*
X440944Y-2806697D01*
X436371Y-2765803D01*
X440944Y-2770375D01*
X454405Y-2774693D01*
X468121Y-2774693D01*
X481837Y-2770375D01*
X490981Y-2761231D01*
X495554Y-2747515D01*
X495554Y-2738371D01*
X490981Y-2724909D01*
X481837Y-2715765D01*
X468121Y-2711193D01*
X454405Y-2711193D01*
X440944Y-2715765D01*
X436371Y-2720337D01*
X431800Y-2729481D01*
X525526Y-2806697D02*
G01*
X561847Y-2711193D01*
X598170Y-2806697D02*
G01*
X561847Y-2711193D01*
X698245Y-2806697D02*
G01*
X698245Y-2711193D01*
X728218Y-2806697D02*
G01*
X728218Y-2711193D01*
X728218Y-2806697D02*
G01*
X791718Y-2711193D01*
X791718Y-2806697D02*
G01*
X791718Y-2711193D01*
X487171Y-1344929D02*
G01*
X482854Y-1354073D01*
X473710Y-1363218D01*
X464565Y-1367789D01*
X446278Y-1367789D01*
X437387Y-1363218D01*
X428244Y-1354073D01*
X423671Y-1344929D01*
X419100Y-1331468D01*
X419100Y-1308607D01*
X423671Y-1294892D01*
X428244Y-1286002D01*
X437387Y-1276857D01*
X446278Y-1272286D01*
X464565Y-1272286D01*
X473710Y-1276857D01*
X482854Y-1286002D01*
X487171Y-1294892D01*
X487171Y-1308607D01*
X464565Y-1308607D02*
G01*
X487171Y-1308607D01*
X517397Y-1367789D02*
G01*
X517397Y-1272286D01*
X517397Y-1367789D02*
G01*
X580897Y-1272286D01*
X580897Y-1367789D02*
G01*
X580897Y-1272286D01*
X610870Y-1367789D02*
G01*
X610870Y-1272286D01*
X610870Y-1367789D02*
G01*
X642620Y-1367789D01*
X656336Y-1363218D01*
X665479Y-1354073D01*
X670052Y-1344929D01*
X674623Y-1331468D01*
X674623Y-1308607D01*
X670052Y-1294892D01*
X665479Y-1286002D01*
X656336Y-1276857D01*
X642620Y-1272286D01*
X610870Y-1272286D01*
X774445Y-1367789D02*
G01*
X774445Y-1272286D01*
X804671Y-1367789D02*
G01*
X804671Y-1272286D01*
X804671Y-1367789D02*
G01*
X868171Y-1272286D01*
X868171Y-1367789D02*
G01*
X868171Y-1272286D01*
X2021077Y-2806697D02*
G01*
X2012188Y-2802125D01*
X2003043Y-2792981D01*
X1998472Y-2783837D01*
X1993900Y-2770375D01*
X1993900Y-2747515D01*
X1998472Y-2733799D01*
X2003043Y-2724909D01*
X2012188Y-2715765D01*
X2021077Y-2711193D01*
X2039365Y-2711193D01*
X2048509Y-2715765D01*
X2057654Y-2724909D01*
X2061972Y-2733799D01*
X2066543Y-2747515D01*
X2066543Y-2770375D01*
X2061972Y-2783837D01*
X2057654Y-2792981D01*
X2048509Y-2802125D01*
X2039365Y-2806697D01*
X2021077Y-2806697D01*
X2096515Y-2806697D02*
G01*
X2096515Y-2738371D01*
X2101088Y-2724909D01*
X2110231Y-2715765D01*
X2123947Y-2711193D01*
X2133091Y-2711193D01*
X2146554Y-2715765D01*
X2155697Y-2724909D01*
X2160270Y-2738371D01*
X2160270Y-2806697D01*
X2221991Y-2806697D02*
G01*
X2221991Y-2711193D01*
X2190241Y-2806697D02*
G01*
X2253995Y-2806697D01*
X2394711Y-2792981D02*
G01*
X2394711Y-2711193D01*
X2353818Y-2752087D02*
G01*
X2435606Y-2752087D01*
X2184400Y-2438397D02*
G01*
X2184400Y-2342893D01*
X2184400Y-2438397D02*
G01*
X2225293Y-2438397D01*
X2239009Y-2433825D01*
X2243581Y-2429253D01*
X2248154Y-2420109D01*
X2248154Y-2410965D01*
X2243581Y-2402075D01*
X2239009Y-2397503D01*
X2225293Y-2392931D01*
X2184400Y-2392931D02*
G01*
X2225293Y-2392931D01*
X2239009Y-2388359D01*
X2243581Y-2383787D01*
X2248154Y-2374643D01*
X2248154Y-2361181D01*
X2243581Y-2352037D01*
X2239009Y-2347465D01*
X2225293Y-2342893D01*
X2184400Y-2342893D01*
X2388870Y-2424681D02*
G01*
X2388870Y-2342893D01*
X2347975Y-2383787D02*
G01*
X2429763Y-2383787D01*
X2171700Y-1714497D02*
G01*
X2171700Y-1618993D01*
X2171700Y-1714497D02*
G01*
X2212593Y-1714497D01*
X2226309Y-1709925D01*
X2230881Y-1705353D01*
X2235454Y-1696209D01*
X2235454Y-1687065D01*
X2230881Y-1678175D01*
X2226309Y-1673603D01*
X2212593Y-1669031D01*
X2171700Y-1669031D02*
G01*
X2212593Y-1669031D01*
X2226309Y-1664459D01*
X2230881Y-1659887D01*
X2235454Y-1650743D01*
X2235454Y-1637281D01*
X2230881Y-1628137D01*
X2226309Y-1623565D01*
X2212593Y-1618993D01*
X2171700Y-1618993D01*
X2335275Y-1659887D02*
G01*
X2417063Y-1659887D01*
X1982977Y-1367789D02*
G01*
X1974088Y-1363218D01*
X1964943Y-1354073D01*
X1960372Y-1344929D01*
X1955800Y-1331468D01*
X1955800Y-1308607D01*
X1960372Y-1294892D01*
X1964943Y-1286002D01*
X1974088Y-1276857D01*
X1982977Y-1272286D01*
X2001265Y-1272286D01*
X2010409Y-1276857D01*
X2019554Y-1286002D01*
X2023872Y-1294892D01*
X2028443Y-1308607D01*
X2028443Y-1331468D01*
X2023872Y-1344929D01*
X2019554Y-1354073D01*
X2010409Y-1363218D01*
X2001265Y-1367789D01*
X1982977Y-1367789D01*
X2058415Y-1367789D02*
G01*
X2058415Y-1299463D01*
X2062988Y-1286002D01*
X2072131Y-1276857D01*
X2085847Y-1272286D01*
X2094991Y-1272286D01*
X2108454Y-1276857D01*
X2117597Y-1286002D01*
X2122170Y-1299463D01*
X2122170Y-1367789D01*
X2183891Y-1367789D02*
G01*
X2183891Y-1272286D01*
X2152141Y-1367789D02*
G01*
X2215895Y-1367789D01*
X2315718Y-1313179D02*
G01*
X2397506Y-1313179D01*
D12*
X127000Y-1181100D02*
G01*
X127000Y-2908300D01*
X2908300Y-2908554D01*
X2908300Y-2667000D01*
X2768600Y-2667000D01*
X2768600Y-1422400D01*
X2908300Y-1422400D01*
X2908300Y-1168400D01*
X127000Y-1168400D01*
X127000Y-1193800D01*
X2908300Y-1422400D02*
G01*
X2768600Y-1422400D01*
X2768600Y-2667000D01*
X2908300Y-2667000D01*
X127000Y-1803400D02*
G01*
X25400Y-1803400D01*
X25400Y-2311400D01*
X127000Y-2311400D01*
M02*
