G04 Layer: TopPasteMaskLayer*
G04 EasyEDA v6.5.46, 2025-04-11 15:52:01*
G04 898f7cb4de8248389c9d67f31726504a,899b5eb0d7ee4baeb7bb73a579ea36e5,10*
G04 Gerber Generator version 0.2*
G04 Scale: 100 percent, Rotated: No, Reflected: No *
G04 Dimensions in millimeters *
G04 leading zeros omitted , absolute positions ,4 integer and 5 decimal *
%FSLAX45Y45*%
%MOMM*%

%ADD10R,0.8000X0.9000*%
%ADD11R,1.1000X1.1000*%
%ADD12R,0.2500X0.3500*%
%ADD13R,0.2500X0.4000*%
%ADD14R,0.3500X0.2500*%
%ADD15R,0.4000X0.2500*%
%ADD16R,1.1000X1.7500*%
%ADD17O,0.3800094X1.4500098000000001*%
%ADD18R,0.6800X0.2800*%
%ADD19R,1.1570X0.4900*%
%ADD20R,1.1750X0.4900*%
%ADD21R,1.3000X0.3000*%
%ADD22R,1.5000X0.9000*%
%ADD23R,0.9000X1.5000*%
%ADD24R,0.9000X0.9000*%
%ADD25R,1.0000X0.6000*%
%ADD26R,1.1000X0.6000*%
%ADD27R,0.8500X0.3500*%
%ADD28O,2.0379944X0.5739892*%
%ADD29O,0.0123X0.5739892*%

%LPD*%
G36*
X469493Y-3017113D02*
G01*
X464515Y-3022092D01*
X464515Y-3150108D01*
X469493Y-3155086D01*
X584504Y-3155086D01*
X589483Y-3150108D01*
X589026Y-3108096D01*
X544982Y-3108096D01*
X544982Y-3063087D01*
X589991Y-3063087D01*
X589483Y-3022092D01*
X584504Y-3017113D01*
G37*
G36*
X685495Y-3017113D02*
G01*
X680516Y-3022092D01*
X680974Y-3064103D01*
X725017Y-3064103D01*
X725017Y-3109112D01*
X680008Y-3109112D01*
X680516Y-3150108D01*
X685495Y-3155086D01*
X800506Y-3155086D01*
X805484Y-3150108D01*
X805484Y-3022092D01*
X800506Y-3017113D01*
G37*
G36*
X1701393Y-3372713D02*
G01*
X1696415Y-3377692D01*
X1696415Y-3505708D01*
X1701393Y-3510686D01*
X1816404Y-3510686D01*
X1821383Y-3505708D01*
X1820925Y-3463696D01*
X1776882Y-3463696D01*
X1776882Y-3418687D01*
X1821891Y-3418687D01*
X1821383Y-3377692D01*
X1816404Y-3372713D01*
G37*
G36*
X1917395Y-3372713D02*
G01*
X1912416Y-3377692D01*
X1912874Y-3419703D01*
X1956917Y-3419703D01*
X1956917Y-3464712D01*
X1911908Y-3464712D01*
X1912416Y-3505708D01*
X1917395Y-3510686D01*
X2032406Y-3510686D01*
X2037384Y-3505708D01*
X2037384Y-3377692D01*
X2032406Y-3372713D01*
G37*
G36*
X1079093Y-3017113D02*
G01*
X1074115Y-3022092D01*
X1074115Y-3150108D01*
X1079093Y-3155086D01*
X1194104Y-3155086D01*
X1199083Y-3150108D01*
X1198626Y-3108096D01*
X1154582Y-3108096D01*
X1154582Y-3063087D01*
X1199591Y-3063087D01*
X1199083Y-3022092D01*
X1194104Y-3017113D01*
G37*
G36*
X1295095Y-3017113D02*
G01*
X1290116Y-3022092D01*
X1290574Y-3064103D01*
X1334617Y-3064103D01*
X1334617Y-3109112D01*
X1289608Y-3109112D01*
X1290116Y-3150108D01*
X1295095Y-3155086D01*
X1410106Y-3155086D01*
X1415084Y-3150108D01*
X1415084Y-3022092D01*
X1410106Y-3017113D01*
G37*
G36*
X3568395Y-2204313D02*
G01*
X3563416Y-2209292D01*
X3563874Y-2251303D01*
X3607917Y-2251303D01*
X3607917Y-2296312D01*
X3562908Y-2296312D01*
X3563416Y-2337308D01*
X3568395Y-2342286D01*
X3683406Y-2342286D01*
X3688384Y-2337308D01*
X3688384Y-2209292D01*
X3683406Y-2204313D01*
G37*
G36*
X3352393Y-2204313D02*
G01*
X3347415Y-2209292D01*
X3347415Y-2337308D01*
X3352393Y-2342286D01*
X3467404Y-2342286D01*
X3472383Y-2337308D01*
X3471926Y-2295296D01*
X3427882Y-2295296D01*
X3427882Y-2250287D01*
X3472891Y-2250287D01*
X3472383Y-2209292D01*
X3467404Y-2204313D01*
G37*
G36*
X3377895Y-2966313D02*
G01*
X3372916Y-2971292D01*
X3373374Y-3013303D01*
X3417417Y-3013303D01*
X3417417Y-3058312D01*
X3372408Y-3058312D01*
X3372916Y-3099308D01*
X3377895Y-3104286D01*
X3492906Y-3104286D01*
X3497884Y-3099308D01*
X3497884Y-2971292D01*
X3492906Y-2966313D01*
G37*
G36*
X3161893Y-2966313D02*
G01*
X3156915Y-2971292D01*
X3156915Y-3099308D01*
X3161893Y-3104286D01*
X3276904Y-3104286D01*
X3281883Y-3099308D01*
X3281426Y-3057296D01*
X3237382Y-3057296D01*
X3237382Y-3012287D01*
X3282391Y-3012287D01*
X3281883Y-2971292D01*
X3276904Y-2966313D01*
G37*
G36*
X3581095Y-2572613D02*
G01*
X3576116Y-2577592D01*
X3576574Y-2619603D01*
X3620617Y-2619603D01*
X3620617Y-2664612D01*
X3575608Y-2664612D01*
X3576116Y-2705608D01*
X3581095Y-2710586D01*
X3696106Y-2710586D01*
X3701084Y-2705608D01*
X3701084Y-2577592D01*
X3696106Y-2572613D01*
G37*
G36*
X3365093Y-2572613D02*
G01*
X3360115Y-2577592D01*
X3360115Y-2705608D01*
X3365093Y-2710586D01*
X3480104Y-2710586D01*
X3485083Y-2705608D01*
X3484626Y-2663596D01*
X3440582Y-2663596D01*
X3440582Y-2618587D01*
X3485591Y-2618587D01*
X3485083Y-2577592D01*
X3480104Y-2572613D01*
G37*
G36*
X1594510Y-246786D02*
G01*
X1594510Y-281787D01*
X1584502Y-281787D01*
X1584502Y-501802D01*
X1844497Y-501802D01*
X1844497Y-281787D01*
X1834489Y-281787D01*
X1834489Y-246786D01*
X1789480Y-246786D01*
X1789480Y-281787D01*
X1769516Y-281787D01*
X1769516Y-246786D01*
X1724507Y-246786D01*
X1724507Y-281787D01*
X1704492Y-281787D01*
X1704492Y-246786D01*
X1659483Y-246786D01*
X1659483Y-281787D01*
X1639519Y-281787D01*
X1639519Y-246786D01*
G37*
G36*
X1789480Y-546811D02*
G01*
X1789480Y-616813D01*
X1834489Y-616813D01*
X1834489Y-546811D01*
G37*
G36*
X1594510Y-546811D02*
G01*
X1594510Y-616813D01*
X1639519Y-616813D01*
X1639519Y-546811D01*
G37*
G36*
X1724507Y-546811D02*
G01*
X1724507Y-616813D01*
X1769516Y-616813D01*
X1769516Y-546811D01*
G37*
G36*
X1659483Y-546811D02*
G01*
X1659483Y-616813D01*
X1704492Y-616813D01*
X1704492Y-546811D01*
G37*
G36*
X2486202Y-361797D02*
G01*
X2486202Y-581812D01*
X2496210Y-581812D01*
X2496210Y-616813D01*
X2541219Y-616813D01*
X2541219Y-581812D01*
X2561183Y-581812D01*
X2561183Y-616813D01*
X2606192Y-616813D01*
X2606192Y-581812D01*
X2626207Y-581812D01*
X2626207Y-616813D01*
X2671216Y-616813D01*
X2671216Y-581812D01*
X2691180Y-581812D01*
X2691180Y-616813D01*
X2736189Y-616813D01*
X2736189Y-581812D01*
X2746197Y-581812D01*
X2746197Y-361797D01*
G37*
G36*
X2496210Y-246786D02*
G01*
X2496210Y-316788D01*
X2541219Y-316788D01*
X2541219Y-246786D01*
G37*
G36*
X2691180Y-246786D02*
G01*
X2691180Y-316788D01*
X2736189Y-316788D01*
X2736189Y-246786D01*
G37*
G36*
X2561183Y-246786D02*
G01*
X2561183Y-316788D01*
X2606192Y-316788D01*
X2606192Y-246786D01*
G37*
G36*
X2626207Y-246786D02*
G01*
X2626207Y-316788D01*
X2671216Y-316788D01*
X2671216Y-246786D01*
G37*
G36*
X2138426Y-925474D02*
G01*
X2134412Y-929487D01*
X2134412Y-975512D01*
X2138426Y-979525D01*
X2188464Y-979525D01*
X2192477Y-975512D01*
X2192477Y-929487D01*
X2188464Y-925474D01*
G37*
G36*
X2053336Y-925474D02*
G01*
X2049322Y-929487D01*
X2049322Y-975512D01*
X2053336Y-979525D01*
X2103374Y-979525D01*
X2107387Y-975512D01*
X2107387Y-929487D01*
X2103374Y-925474D01*
G37*
G36*
X1323187Y-1258112D02*
G01*
X1319174Y-1262075D01*
X1319174Y-1312164D01*
X1323187Y-1316177D01*
X1369212Y-1316177D01*
X1373225Y-1312164D01*
X1373225Y-1262075D01*
X1369212Y-1258112D01*
G37*
G36*
X1323187Y-1173022D02*
G01*
X1319174Y-1177036D01*
X1319174Y-1227124D01*
X1323187Y-1231087D01*
X1369212Y-1231087D01*
X1373225Y-1227124D01*
X1373225Y-1177036D01*
X1369212Y-1173022D01*
G37*
G36*
X2923387Y-546912D02*
G01*
X2919374Y-550875D01*
X2919374Y-600964D01*
X2923387Y-604977D01*
X2969412Y-604977D01*
X2973425Y-600964D01*
X2973425Y-550875D01*
X2969412Y-546912D01*
G37*
G36*
X2923387Y-461822D02*
G01*
X2919374Y-465835D01*
X2919374Y-515924D01*
X2923387Y-519887D01*
X2969412Y-519887D01*
X2973425Y-515924D01*
X2973425Y-465835D01*
X2969412Y-461822D01*
G37*
G36*
X2407818Y-3256991D02*
G01*
X2402789Y-3262020D01*
X2402789Y-3341979D01*
X2407818Y-3347008D01*
X2487777Y-3347008D01*
X2492806Y-3341979D01*
X2492806Y-3319221D01*
X2455824Y-3319221D01*
X2455824Y-3286201D01*
X2492806Y-3286201D01*
X2492806Y-3262020D01*
X2487777Y-3256991D01*
G37*
G36*
X2566822Y-3256991D02*
G01*
X2561793Y-3262020D01*
X2561793Y-3284778D01*
X2598775Y-3284778D01*
X2598775Y-3317798D01*
X2561793Y-3317798D01*
X2561793Y-3341979D01*
X2566822Y-3347008D01*
X2646781Y-3347008D01*
X2651810Y-3341979D01*
X2651810Y-3262020D01*
X2646781Y-3256991D01*
G37*
G36*
X2554122Y-3498291D02*
G01*
X2549093Y-3503320D01*
X2549093Y-3526078D01*
X2586075Y-3526078D01*
X2586075Y-3559098D01*
X2549093Y-3559098D01*
X2549093Y-3583279D01*
X2554122Y-3588308D01*
X2634081Y-3588308D01*
X2639110Y-3583279D01*
X2639110Y-3503320D01*
X2634081Y-3498291D01*
G37*
G36*
X2395118Y-3498291D02*
G01*
X2390089Y-3503320D01*
X2390089Y-3583279D01*
X2395118Y-3588308D01*
X2475077Y-3588308D01*
X2480106Y-3583279D01*
X2480106Y-3560521D01*
X2443124Y-3560521D01*
X2443124Y-3527501D01*
X2480106Y-3527501D01*
X2480106Y-3503320D01*
X2475077Y-3498291D01*
G37*
G36*
X3900322Y-551891D02*
G01*
X3895293Y-556920D01*
X3895293Y-579678D01*
X3932275Y-579678D01*
X3932275Y-612698D01*
X3895293Y-612698D01*
X3895293Y-636879D01*
X3900322Y-641908D01*
X3980281Y-641908D01*
X3985310Y-636879D01*
X3985310Y-556920D01*
X3980281Y-551891D01*
G37*
G36*
X3741318Y-551891D02*
G01*
X3736289Y-556920D01*
X3736289Y-636879D01*
X3741318Y-641908D01*
X3821277Y-641908D01*
X3826306Y-636879D01*
X3826306Y-614121D01*
X3789324Y-614121D01*
X3789324Y-581101D01*
X3826306Y-581101D01*
X3826306Y-556920D01*
X3821277Y-551891D01*
G37*
G36*
X1881022Y-3053791D02*
G01*
X1875993Y-3058820D01*
X1875993Y-3081578D01*
X1913026Y-3081578D01*
X1913026Y-3114598D01*
X1875993Y-3114598D01*
X1875993Y-3138779D01*
X1881022Y-3143808D01*
X1960981Y-3143808D01*
X1966010Y-3138779D01*
X1966010Y-3058820D01*
X1960981Y-3053791D01*
G37*
G36*
X1722018Y-3053791D02*
G01*
X1716989Y-3058820D01*
X1716989Y-3138779D01*
X1722018Y-3143808D01*
X1801977Y-3143808D01*
X1807006Y-3138779D01*
X1807006Y-3116021D01*
X1769973Y-3116021D01*
X1769973Y-3083001D01*
X1807006Y-3083001D01*
X1807006Y-3058820D01*
X1801977Y-3053791D01*
G37*
G36*
X1385722Y-3447491D02*
G01*
X1380693Y-3452520D01*
X1380693Y-3475278D01*
X1417726Y-3475278D01*
X1417726Y-3508298D01*
X1380693Y-3508298D01*
X1380693Y-3532479D01*
X1385722Y-3537508D01*
X1465681Y-3537508D01*
X1470710Y-3532479D01*
X1470710Y-3452520D01*
X1465681Y-3447491D01*
G37*
G36*
X1226718Y-3447491D02*
G01*
X1221689Y-3452520D01*
X1221689Y-3532479D01*
X1226718Y-3537508D01*
X1306677Y-3537508D01*
X1311706Y-3532479D01*
X1311706Y-3509721D01*
X1274673Y-3509721D01*
X1274673Y-3476701D01*
X1311706Y-3476701D01*
X1311706Y-3452520D01*
X1306677Y-3447491D01*
G37*
G36*
X950620Y-3279089D02*
G01*
X945591Y-3284118D01*
X945591Y-3364077D01*
X950620Y-3369106D01*
X973378Y-3369106D01*
X973378Y-3332073D01*
X1006398Y-3332073D01*
X1006398Y-3369106D01*
X1030579Y-3369106D01*
X1035608Y-3364077D01*
X1035608Y-3284118D01*
X1030579Y-3279089D01*
G37*
G36*
X950620Y-3438093D02*
G01*
X945591Y-3443122D01*
X945591Y-3523081D01*
X950620Y-3528110D01*
X1030579Y-3528110D01*
X1035608Y-3523081D01*
X1035608Y-3443122D01*
X1030579Y-3438093D01*
X1007821Y-3438093D01*
X1007821Y-3475126D01*
X974801Y-3475126D01*
X974801Y-3438093D01*
G37*
G36*
X2960522Y-3498291D02*
G01*
X2955493Y-3503320D01*
X2955493Y-3526078D01*
X2992475Y-3526078D01*
X2992475Y-3559098D01*
X2955493Y-3559098D01*
X2955493Y-3583279D01*
X2960522Y-3588308D01*
X3040481Y-3588308D01*
X3045510Y-3583279D01*
X3045510Y-3503320D01*
X3040481Y-3498291D01*
G37*
G36*
X2801518Y-3498291D02*
G01*
X2796489Y-3503320D01*
X2796489Y-3583279D01*
X2801518Y-3588308D01*
X2881477Y-3588308D01*
X2886506Y-3583279D01*
X2886506Y-3560521D01*
X2849524Y-3560521D01*
X2849524Y-3527501D01*
X2886506Y-3527501D01*
X2886506Y-3503320D01*
X2881477Y-3498291D01*
G37*
G36*
X2877718Y-1644091D02*
G01*
X2872689Y-1649120D01*
X2872689Y-1729079D01*
X2877718Y-1734108D01*
X2957677Y-1734108D01*
X2962706Y-1729079D01*
X2962706Y-1706321D01*
X2925724Y-1706321D01*
X2925724Y-1673301D01*
X2962706Y-1673301D01*
X2962706Y-1649120D01*
X2957677Y-1644091D01*
G37*
G36*
X3036722Y-1644091D02*
G01*
X3031693Y-1649120D01*
X3031693Y-1671878D01*
X3068675Y-1671878D01*
X3068675Y-1704898D01*
X3031693Y-1704898D01*
X3031693Y-1729079D01*
X3036722Y-1734108D01*
X3116681Y-1734108D01*
X3121710Y-1729079D01*
X3121710Y-1649120D01*
X3116681Y-1644091D01*
G37*
D10*
G01*
X2597302Y-3073400D03*
G01*
X2457297Y-3073400D03*
D11*
G01*
X1589912Y-2768600D03*
G01*
X1889912Y-2768600D03*
G01*
X2171700Y-2639212D03*
G01*
X2171700Y-2339212D03*
D12*
G01*
X621512Y-3509822D03*
G01*
X571525Y-3509822D03*
G01*
X521512Y-3509822D03*
G01*
X521512Y-3449802D03*
G01*
X571525Y-3449802D03*
D13*
G01*
X621512Y-3449802D03*
D14*
G01*
X401777Y-2742412D03*
G01*
X401777Y-2692425D03*
G01*
X401777Y-2642412D03*
G01*
X461797Y-2642412D03*
G01*
X461797Y-2692425D03*
D15*
G01*
X461797Y-2742412D03*
D16*
G01*
X2203602Y-345109D03*
G01*
X2063597Y-345109D03*
G01*
X2063597Y-620090D03*
G01*
X2203602Y-620090D03*
D17*
G01*
X1680489Y-1375689D03*
G01*
X1745513Y-1375689D03*
G01*
X1810512Y-1375689D03*
G01*
X1875510Y-1375689D03*
G01*
X1680489Y-935710D03*
G01*
X1745513Y-935710D03*
G01*
X1810512Y-935710D03*
G01*
X1875510Y-935710D03*
G01*
X3166389Y-727989D03*
G01*
X3231413Y-727989D03*
G01*
X3296411Y-727989D03*
G01*
X3361410Y-727989D03*
G01*
X3166389Y-288010D03*
G01*
X3231413Y-288010D03*
G01*
X3296411Y-288010D03*
G01*
X3361410Y-288010D03*
D18*
G01*
X2958591Y-2717012D03*
G01*
X2958591Y-2617012D03*
G01*
X3086608Y-2617012D03*
G01*
X3086608Y-2667025D03*
G01*
X3086608Y-2717012D03*
D19*
G01*
X786333Y-2559304D03*
G01*
X786333Y-2654300D03*
G01*
X786333Y-2749295D03*
D20*
G01*
X1017066Y-2749295D03*
G01*
X1017066Y-2559304D03*
D21*
G01*
X2101900Y-1890699D03*
G01*
X2101900Y-1840712D03*
G01*
X2101900Y-1790725D03*
G01*
X2101900Y-1740712D03*
G01*
X2101900Y-1690700D03*
G01*
X1631899Y-1690725D03*
G01*
X1631899Y-1740712D03*
G01*
X1631899Y-1790700D03*
G01*
X1631899Y-1840712D03*
G01*
X1631899Y-1890725D03*
D22*
G01*
X4357395Y-1104392D03*
G01*
X4357395Y-1231392D03*
G01*
X4357395Y-1358392D03*
G01*
X4357395Y-1485392D03*
G01*
X4357395Y-1612392D03*
G01*
X4357395Y-1739392D03*
G01*
X4357395Y-1866392D03*
G01*
X4357395Y-1993392D03*
G01*
X4357395Y-2120392D03*
G01*
X4357395Y-2247392D03*
G01*
X4357395Y-2374392D03*
G01*
X4357395Y-2501392D03*
G01*
X4357395Y-2628392D03*
G01*
X4357395Y-2755392D03*
D23*
G01*
X4533900Y-2883407D03*
G01*
X4660900Y-2883407D03*
G01*
X4787900Y-2883407D03*
G01*
X4914900Y-2883407D03*
G01*
X5041900Y-2883407D03*
G01*
X5168900Y-2883407D03*
G01*
X5295900Y-2883407D03*
G01*
X5422900Y-2883407D03*
G01*
X5549900Y-2883407D03*
G01*
X5676900Y-2883407D03*
G01*
X5803900Y-2883407D03*
G01*
X5930900Y-2880410D03*
D22*
G01*
X6107404Y-2755392D03*
G01*
X6107404Y-2628392D03*
G01*
X6107404Y-2501392D03*
G01*
X6107404Y-2374392D03*
G01*
X6107404Y-2247392D03*
G01*
X6107404Y-2120392D03*
G01*
X6107404Y-1993392D03*
G01*
X6107404Y-1866392D03*
G01*
X6107404Y-1739392D03*
G01*
X6107404Y-1612392D03*
G01*
X6107404Y-1485392D03*
G01*
X6107404Y-1358392D03*
G01*
X6107404Y-1231392D03*
G01*
X6107404Y-1104392D03*
D24*
G01*
X5222392Y-2016404D03*
G01*
X5082387Y-2016429D03*
G01*
X4942382Y-2016404D03*
G01*
X4942382Y-1736420D03*
G01*
X5082387Y-1736420D03*
G01*
X5222392Y-1736420D03*
G01*
X5222392Y-1876425D03*
G01*
X4942382Y-1876425D03*
G01*
X5082387Y-1876425D03*
D25*
G01*
X3907307Y-1155700D03*
G01*
X3907307Y-1060704D03*
G01*
X3907307Y-1250695D03*
G01*
X3687292Y-1060704D03*
G01*
X3687292Y-1250695D03*
D26*
G01*
X3324377Y-3587495D03*
G01*
X3324377Y-3397504D03*
G01*
X3584422Y-3397504D03*
G01*
X3584422Y-3492500D03*
G01*
X3584422Y-3587495D03*
D27*
G01*
X1849907Y-2389098D03*
G01*
X1849907Y-2324100D03*
G01*
X1849907Y-2259101D03*
G01*
X1629892Y-2259101D03*
G01*
X1629892Y-2324100D03*
G01*
X1629892Y-2389098D03*
G01*
X3064992Y-1217701D03*
G01*
X3064992Y-1282700D03*
G01*
X3064992Y-1347698D03*
G01*
X3285007Y-1347698D03*
G01*
X3285007Y-1282700D03*
G01*
X3285007Y-1217701D03*
D26*
G01*
X3152597Y-2089404D03*
G01*
X3152597Y-2279395D03*
G01*
X2892602Y-2089404D03*
G01*
X2892602Y-2279395D03*
G01*
X2892602Y-2184400D03*
D28*
G01*
X548589Y-1409700D03*
G01*
X548589Y-1536700D03*
G01*
X548589Y-1663700D03*
G01*
X548589Y-1790700D03*
G01*
X548589Y-1917700D03*
G01*
X548589Y-2044700D03*
G01*
X548589Y-2171700D03*
G01*
X1102410Y-1409700D03*
G01*
X1102410Y-1536700D03*
G01*
X1102410Y-1663700D03*
G01*
X1102410Y-1790700D03*
G01*
X1102410Y-1917700D03*
G01*
X1102410Y-2044700D03*
G01*
X1102410Y-2171700D03*
M02*
